<svg id="svg" version="1.1" xmlns="http://www.w3.org/2000/svg" xmlns:xlink="http://www.w3.org/1999/xlink" width="400" height="400" viewBox="0, 0, 400,400"><g id="svgg"><path id="path0" d="M199.481 30.679 C 199.375 30.855,198.908 31.675,198.444 32.500 C 197.980 33.325,197.240 34.630,196.800 35.400 C 196.360 36.170,195.640 37.430,195.200 38.200 C 194.760 38.970,194.040 40.230,193.600 41.000 C 193.160 41.770,192.440 43.030,192.000 43.800 C 191.560 44.570,190.840 45.830,190.400 46.600 C 189.960 47.370,189.240 48.630,188.800 49.400 C 188.360 50.170,187.640 51.430,187.200 52.200 C 186.760 52.970,186.040 54.230,185.600 55.000 C 185.160 55.770,184.440 57.030,184.000 57.800 C 183.560 58.570,182.840 59.830,182.400 60.600 C 181.960 61.370,181.240 62.630,180.800 63.400 C 180.360 64.170,179.640 65.430,179.200 66.200 C 178.760 66.970,178.040 68.230,177.600 69.000 C 177.160 69.770,176.440 71.030,176.000 71.800 C 175.560 72.570,174.840 73.830,174.400 74.600 C 173.960 75.370,173.240 76.630,172.800 77.400 C 172.360 78.170,171.640 79.430,171.200 80.200 C 170.760 80.970,170.040 82.230,169.600 83.000 C 169.160 83.770,168.440 85.030,168.000 85.800 C 167.560 86.570,166.812 87.875,166.338 88.700 C 165.865 89.525,165.111 90.875,164.664 91.700 C 164.217 92.525,163.604 93.200,163.302 93.200 C 163.000 93.200,162.863 93.379,162.999 93.598 C 163.236 93.983,162.279 95.909,159.659 100.318 C 158.966 101.482,158.400 102.534,158.400 102.656 C 158.400 102.777,158.067 103.354,157.661 103.938 C 157.255 104.522,156.381 105.990,155.720 107.200 C 155.058 108.410,153.951 110.353,153.259 111.518 C 152.566 112.682,152.000 113.734,152.000 113.856 C 152.000 113.977,151.667 114.554,151.261 115.138 C 150.855 115.722,149.981 117.190,149.320 118.400 C 148.658 119.610,147.551 121.553,146.859 122.718 C 146.166 123.882,145.600 124.934,145.600 125.056 C 145.600 125.177,145.267 125.754,144.861 126.338 C 144.455 126.922,143.581 128.390,142.920 129.600 C 142.258 130.810,141.151 132.753,140.459 133.918 C 139.766 135.082,139.200 136.134,139.200 136.256 C 139.200 136.377,138.867 136.954,138.461 137.538 C 138.055 138.122,137.181 139.590,136.520 140.800 C 135.858 142.010,134.751 143.953,134.059 145.118 C 133.366 146.282,132.800 147.334,132.800 147.456 C 132.800 147.577,132.467 148.154,132.061 148.738 C 131.655 149.322,130.781 150.790,130.120 152.000 C 129.458 153.210,128.351 155.153,127.659 156.318 C 126.966 157.482,126.400 158.534,126.400 158.656 C 126.400 158.777,126.067 159.354,125.661 159.938 C 125.255 160.522,124.381 161.990,123.720 163.200 C 123.058 164.410,121.951 166.353,121.259 167.518 C 120.566 168.682,120.000 169.734,120.000 169.856 C 120.000 169.977,119.667 170.554,119.261 171.138 C 118.855 171.722,117.981 173.190,117.320 174.400 C 116.658 175.610,115.551 177.553,114.859 178.718 C 114.166 179.882,113.600 180.934,113.600 181.056 C 113.600 181.177,113.267 181.754,112.861 182.338 C 112.455 182.922,111.581 184.390,110.920 185.600 C 110.258 186.810,109.151 188.753,108.459 189.918 C 107.766 191.082,107.200 192.134,107.200 192.256 C 107.200 192.377,106.867 192.954,106.461 193.538 C 106.055 194.122,105.181 195.590,104.520 196.800 C 103.858 198.010,102.751 199.953,102.059 201.118 C 101.366 202.282,100.800 203.334,100.800 203.456 C 100.800 203.577,100.467 204.154,100.061 204.738 C 99.655 205.322,98.781 206.790,98.120 208.000 C 97.458 209.210,96.351 211.153,95.659 212.318 C 94.966 213.482,94.400 214.499,94.400 214.577 C 94.400 214.655,93.680 215.903,92.800 217.352 C 91.920 218.800,91.200 220.096,91.200 220.231 C 91.200 220.366,90.867 220.954,90.461 221.538 C 90.055 222.122,89.181 223.590,88.520 224.800 C 87.858 226.010,86.751 227.953,86.059 229.118 C 85.366 230.282,84.800 231.334,84.800 231.456 C 84.800 231.577,84.467 232.154,84.061 232.738 C 83.655 233.322,82.781 234.790,82.120 236.000 C 81.458 237.210,80.351 239.153,79.659 240.318 C 78.966 241.482,78.400 242.534,78.400 242.656 C 78.400 242.777,78.067 243.354,77.661 243.938 C 77.255 244.522,76.381 245.990,75.720 247.200 C 75.058 248.410,73.951 250.353,73.259 251.518 C 72.566 252.682,72.000 253.734,72.000 253.856 C 72.000 253.977,71.667 254.554,71.261 255.138 C 70.855 255.722,69.981 257.190,69.320 258.400 C 68.658 259.610,67.551 261.553,66.859 262.718 C 66.166 263.882,65.600 264.934,65.600 265.056 C 65.600 265.177,65.267 265.754,64.861 266.338 C 64.455 266.922,63.581 268.390,62.920 269.600 C 62.258 270.810,61.151 272.753,60.459 273.918 C 59.766 275.082,59.200 276.134,59.200 276.256 C 59.200 276.377,58.867 276.954,58.461 277.538 C 58.055 278.122,57.181 279.590,56.520 280.800 C 55.858 282.010,54.751 283.953,54.059 285.118 C 53.366 286.282,52.800 287.334,52.800 287.456 C 52.800 287.577,52.464 288.154,52.054 288.738 C 51.644 289.322,50.873 290.610,50.341 291.600 C 47.702 296.511,45.474 300.000,44.978 300.000 C 44.657 300.000,44.519 300.246,44.650 300.586 C 44.779 300.923,39.605 310.393,32.437 322.935 C 25.597 334.905,20.000 344.899,20.000 345.143 C 20.000 345.459,23.651 345.619,32.500 345.694 C 43.260 345.785,44.982 345.882,44.870 346.389 C 44.768 346.854,44.901 346.833,45.502 346.289 C 46.684 345.219,353.316 345.219,354.498 346.289 C 355.099 346.833,355.232 346.854,355.130 346.389 C 355.018 345.882,356.740 345.785,367.500 345.694 C 374.807 345.633,380.000 345.435,380.000 345.219 C 380.000 344.775,377.777 340.629,376.739 339.138 C 376.333 338.554,376.000 337.966,376.000 337.831 C 376.000 337.696,375.280 336.400,374.400 334.952 C 373.520 333.503,372.800 332.255,372.800 332.177 C 372.800 332.099,372.234 331.082,371.541 329.918 C 370.849 328.753,369.742 326.810,369.080 325.600 C 368.419 324.390,367.545 322.922,367.139 322.338 C 366.733 321.754,366.400 321.177,366.400 321.056 C 366.400 320.934,365.834 319.882,365.141 318.718 C 364.449 317.553,363.342 315.610,362.680 314.400 C 362.019 313.190,361.145 311.722,360.739 311.138 C 360.333 310.554,360.000 309.977,360.000 309.856 C 360.000 309.734,359.432 308.682,358.738 307.518 C 355.870 302.702,354.754 300.400,355.276 300.375 C 355.564 300.361,355.422 300.197,354.960 300.010 C 354.499 299.823,353.621 298.710,353.010 297.535 C 352.399 296.361,351.562 294.922,351.149 294.338 C 350.737 293.754,350.400 293.177,350.400 293.056 C 350.400 292.934,349.834 291.882,349.141 290.718 C 348.449 289.553,347.342 287.610,346.680 286.400 C 346.019 285.190,345.145 283.722,344.739 283.138 C 344.333 282.554,344.000 281.977,344.000 281.856 C 344.000 281.734,343.434 280.682,342.741 279.518 C 342.049 278.353,340.942 276.410,340.280 275.200 C 339.619 273.990,338.745 272.522,338.339 271.938 C 337.933 271.354,337.600 270.777,337.600 270.656 C 337.600 270.534,337.034 269.482,336.341 268.318 C 335.649 267.153,334.542 265.210,333.880 264.000 C 333.219 262.790,332.345 261.322,331.939 260.738 C 331.533 260.154,331.200 259.577,331.200 259.456 C 331.200 259.334,330.634 258.282,329.941 257.118 C 329.249 255.953,328.142 254.010,327.480 252.800 C 326.819 251.590,325.945 250.122,325.539 249.538 C 325.133 248.954,324.800 248.377,324.800 248.256 C 324.800 248.134,324.234 247.082,323.541 245.918 C 322.849 244.753,321.742 242.810,321.080 241.600 C 320.419 240.390,319.545 238.922,319.139 238.338 C 318.733 237.754,318.400 237.177,318.400 237.056 C 318.400 236.934,317.834 235.882,317.141 234.718 C 316.449 233.553,315.342 231.610,314.680 230.400 C 314.019 229.190,313.145 227.722,312.739 227.138 C 312.333 226.554,312.000 225.977,312.000 225.856 C 312.000 225.734,311.434 224.682,310.741 223.518 C 310.049 222.353,308.942 220.410,308.280 219.200 C 307.619 217.990,306.745 216.522,306.339 215.938 C 305.933 215.354,305.600 214.777,305.600 214.656 C 305.600 214.534,305.034 213.482,304.341 212.318 C 303.649 211.153,302.542 209.210,301.880 208.000 C 301.219 206.790,300.345 205.322,299.939 204.738 C 299.533 204.154,299.200 203.577,299.200 203.456 C 299.200 203.334,298.634 202.282,297.941 201.118 C 297.249 199.953,296.142 198.010,295.480 196.800 C 294.819 195.590,293.945 194.122,293.539 193.538 C 293.133 192.954,292.800 192.377,292.800 192.256 C 292.800 192.134,292.234 191.082,291.541 189.918 C 290.849 188.753,289.742 186.810,289.080 185.600 C 288.419 184.390,287.545 182.922,287.139 182.338 C 286.733 181.754,286.400 181.177,286.400 181.056 C 286.400 180.934,285.834 179.882,285.141 178.718 C 284.449 177.553,283.342 175.610,282.680 174.400 C 282.019 173.190,281.145 171.722,280.739 171.138 C 280.333 170.554,280.000 169.977,280.000 169.856 C 280.000 169.734,279.434 168.682,278.741 167.518 C 278.049 166.353,276.942 164.410,276.280 163.200 C 275.619 161.990,274.745 160.522,274.339 159.938 C 273.933 159.354,273.600 158.777,273.600 158.656 C 273.600 158.534,273.034 157.482,272.341 156.318 C 271.649 155.153,270.542 153.210,269.880 152.000 C 269.219 150.790,268.345 149.322,267.939 148.738 C 267.533 148.154,267.200 147.577,267.200 147.456 C 267.200 147.334,266.634 146.282,265.941 145.118 C 265.249 143.953,264.142 142.010,263.480 140.800 C 262.819 139.590,261.945 138.122,261.539 137.538 C 261.133 136.954,260.800 136.377,260.800 136.256 C 260.800 136.134,260.234 135.082,259.541 133.918 C 258.849 132.753,257.742 130.810,257.080 129.600 C 256.419 128.390,255.545 126.922,255.139 126.338 C 254.733 125.754,254.400 125.177,254.400 125.056 C 254.400 124.934,253.834 123.882,253.141 122.718 C 252.449 121.553,251.342 119.610,250.680 118.400 C 250.019 117.190,249.145 115.722,248.739 115.138 C 248.333 114.554,248.000 113.977,248.000 113.856 C 248.000 113.734,247.434 112.682,246.741 111.518 C 246.049 110.353,244.942 108.410,244.280 107.200 C 243.619 105.990,242.745 104.522,242.339 103.938 C 241.933 103.354,241.600 102.777,241.600 102.656 C 241.600 102.534,241.090 101.571,240.468 100.515 C 239.845 99.458,239.410 98.371,239.501 98.097 C 239.592 97.824,239.403 97.600,239.080 97.600 C 238.757 97.600,238.390 97.285,238.264 96.900 C 238.138 96.515,237.552 95.390,236.961 94.400 C 236.370 93.410,235.552 92.015,235.143 91.300 C 234.735 90.585,234.040 89.370,233.600 88.600 C 233.160 87.830,232.440 86.570,232.000 85.800 C 231.560 85.030,230.840 83.770,230.400 83.000 C 229.960 82.230,229.240 80.970,228.800 80.200 C 228.360 79.430,227.640 78.170,227.200 77.400 C 226.760 76.630,226.040 75.370,225.600 74.600 C 225.160 73.830,224.440 72.570,224.000 71.800 C 223.560 71.030,222.840 69.770,222.400 69.000 C 221.960 68.230,221.240 66.970,220.800 66.200 C 220.360 65.430,219.640 64.170,219.200 63.400 C 218.760 62.630,218.040 61.370,217.600 60.600 C 217.160 59.830,216.440 58.570,216.000 57.800 C 215.560 57.030,214.840 55.770,214.400 55.000 C 213.960 54.230,213.240 52.970,212.800 52.200 C 212.360 51.430,211.640 50.170,211.200 49.400 C 210.760 48.630,210.040 47.370,209.600 46.600 C 209.160 45.830,208.440 44.570,208.000 43.800 C 207.560 43.030,206.840 41.770,206.400 41.000 C 205.960 40.230,205.240 38.970,204.800 38.200 C 204.360 37.430,203.665 36.215,203.257 35.500 C 202.848 34.785,202.059 33.397,201.505 32.416 C 200.497 30.634,199.844 30.073,199.481 30.679 M214.908 152.181 C 220.056 154.048,221.004 155.090,219.896 157.666 C 218.772 160.282,218.400 161.888,218.400 164.128 L 218.400 166.400 219.823 166.400 C 220.605 166.400,222.000 166.235,222.923 166.034 C 223.845 165.833,226.130 165.460,228.000 165.206 C 229.870 164.951,232.357 164.561,233.526 164.338 C 236.713 163.730,241.387 165.049,242.543 166.882 C 243.605 168.565,240.914 169.343,231.800 169.987 C 225.102 170.460,216.543 171.399,213.200 172.027 C 211.990 172.254,210.100 172.594,209.000 172.783 C 207.900 172.971,205.830 173.337,204.400 173.597 C 200.311 174.338,197.842 173.884,195.300 171.923 C 192.419 169.700,191.791 168.580,193.658 168.996 C 196.696 169.671,203.478 169.658,206.661 168.970 C 208.387 168.597,210.340 168.203,211.000 168.095 C 213.117 167.750,213.200 167.517,213.200 161.887 L 213.200 156.672 211.000 154.366 C 209.790 153.097,208.800 151.866,208.800 151.630 C 208.800 150.870,212.119 151.170,214.908 152.181 M176.347 154.004 C 180.622 156.283,181.679 157.905,180.773 160.800 C 179.937 163.470,179.216 168.215,179.208 171.090 L 179.200 173.980 180.500 173.734 C 181.215 173.598,182.045 173.294,182.346 173.057 C 184.383 171.449,190.551 173.416,190.310 175.597 C 190.186 176.719,189.216 176.966,182.800 177.511 L 179.400 177.800 179.289 183.076 L 179.177 188.352 180.489 188.929 C 181.210 189.246,182.430 189.740,183.200 190.025 C 187.395 191.580,190.818 196.250,189.196 198.205 C 188.317 199.264,187.615 198.862,183.536 194.959 C 180.862 192.400,179.389 191.251,179.123 191.517 C 178.880 191.760,178.579 198.949,178.356 209.859 C 177.742 239.925,177.514 241.709,174.681 238.649 C 172.618 236.420,172.359 229.849,173.583 210.800 C 174.062 203.339,174.759 191.672,174.783 190.700 C 174.817 189.321,174.048 190.054,171.844 193.500 C 166.143 202.413,159.561 210.258,153.044 215.905 C 149.745 218.763,149.429 218.032,152.416 214.457 C 160.597 204.667,167.854 193.258,171.993 183.682 C 173.859 179.366,173.913 179.032,172.700 179.320 C 171.757 179.544,167.427 180.694,163.480 181.769 C 160.255 182.647,159.445 182.575,156.649 181.162 C 151.264 178.440,151.386 177.600,157.169 177.600 C 161.175 177.600,163.382 177.334,167.200 176.390 C 167.970 176.200,169.736 175.815,171.124 175.534 C 174.692 174.814,174.600 175.064,174.600 166.039 C 174.600 157.527,174.379 156.447,172.226 154.424 C 170.058 152.387,172.791 152.109,176.347 154.004 M223.105 176.371 C 223.487 176.575,226.462 178.034,229.715 179.614 C 237.792 183.536,241.600 187.106,241.600 190.757 C 241.600 192.559,238.369 192.597,236.800 190.814 C 236.690 190.689,235.970 190.072,235.200 189.443 C 225.394 181.432,218.373 173.843,223.105 176.371 M204.212 179.831 C 205.627 180.422,208.400 182.847,208.400 183.493 C 208.400 184.037,193.804 198.800,193.267 198.800 C 192.410 198.800,192.785 197.829,195.125 193.986 C 196.402 191.889,198.217 188.602,199.159 186.683 L 200.872 183.193 199.816 181.391 C 198.219 178.665,199.951 178.051,204.212 179.831 M223.922 189.553 C 228.510 192.682,229.848 194.623,228.478 196.160 C 227.502 197.255,226.552 198.887,223.914 204.000 C 221.781 208.135,220.936 209.662,219.281 212.369 L 218.444 213.739 219.244 214.861 C 219.683 215.478,221.428 217.109,223.121 218.485 C 224.815 219.861,226.560 221.318,227.000 221.724 C 229.308 223.850,239.696 230.506,244.600 233.002 C 250.812 236.163,250.391 236.600,241.133 236.600 L 234.305 236.600 225.033 227.165 L 215.761 217.731 211.980 221.300 C 203.436 229.369,195.132 235.081,187.247 238.317 C 182.117 240.421,182.962 239.086,189.500 234.754 C 196.089 230.390,197.787 228.993,204.753 222.211 C 211.898 215.254,212.584 214.316,211.726 212.657 C 210.903 211.064,205.408 204.303,203.243 202.219 C 201.178 200.231,201.189 200.000,203.353 200.000 C 205.238 200.000,206.609 201.174,211.846 207.277 C 214.522 210.395,214.958 210.276,217.218 205.800 C 221.680 196.962,222.582 193.353,221.057 190.437 C 219.500 187.458,220.429 187.172,223.922 189.553 M161.007 261.700 C 161.129 262.195,161.178 265.300,161.115 268.600 L 161.000 274.600 146.600 274.800 L 132.200 275.000 132.200 280.400 L 132.200 285.800 144.400 286.000 L 156.600 286.200 156.600 293.000 L 156.600 299.800 144.289 299.906 L 131.977 300.012 132.089 305.506 L 132.200 311.000 146.600 311.200 L 161.000 311.400 161.000 318.000 L 161.000 324.600 138.800 324.600 L 116.600 324.600 116.490 293.600 C 116.429 276.550,116.478 262.195,116.597 261.700 L 116.815 260.800 138.800 260.800 L 160.785 260.800 161.007 261.700 M243.200 280.800 C 243.310 291.690,243.554 300.960,243.743 301.400 C 244.926 304.162,245.307 304.828,246.297 305.870 C 252.639 312.546,262.908 311.524,267.600 303.752 L 269.000 301.433 269.200 281.216 L 269.400 261.000 276.290 260.891 L 283.180 260.781 283.422 261.747 C 284.187 264.794,283.346 303.003,282.458 305.600 C 280.810 310.414,278.847 313.511,275.348 316.821 C 267.112 324.612,256.885 326.849,246.800 323.066 C 237.766 319.677,231.278 312.060,229.367 302.600 C 228.765 299.623,228.499 261.634,229.076 261.058 C 229.227 260.906,232.422 260.831,236.176 260.891 L 243.000 261.000 243.200 280.800 M198.400 262.184 C 204.530 263.731,208.761 266.023,213.113 270.155 C 231.285 287.403,223.817 316.885,199.400 324.293 C 196.569 325.151,167.666 325.547,167.151 324.734 C 166.755 324.109,166.672 262.261,167.067 261.867 C 167.623 261.310,196.080 261.598,198.400 262.184 M182.400 293.200 L 182.400 310.400 188.089 310.400 C 196.691 310.400,200.433 308.893,204.634 303.737 C 207.745 299.919,209.172 292.467,207.595 288.271 C 204.264 279.408,198.761 276.015,187.700 276.005 L 182.400 276.000 182.400 293.200 " stroke="none" fill="#d36c1c" fill-rule="evenodd"></path><path id="path1" d="M88.864 187.788 C 53.849 249.064,25.200 299.380,25.200 299.600 C 25.200 299.856,28.854 300.000,35.365 300.000 L 45.530 300.000 47.452 296.700 C 48.509 294.885,49.809 292.590,50.341 291.600 C 50.873 290.610,51.644 289.322,52.054 288.738 C 52.464 288.154,52.800 287.577,52.800 287.456 C 52.800 287.334,53.366 286.282,54.059 285.118 C 54.751 283.953,55.858 282.010,56.520 280.800 C 57.181 279.590,58.055 278.122,58.461 277.538 C 58.867 276.954,59.200 276.377,59.200 276.256 C 59.200 276.134,59.766 275.082,60.459 273.918 C 61.151 272.753,62.258 270.810,62.920 269.600 C 63.581 268.390,64.455 266.922,64.861 266.338 C 65.267 265.754,65.600 265.177,65.600 265.056 C 65.600 264.934,66.166 263.882,66.859 262.718 C 67.551 261.553,68.658 259.610,69.320 258.400 C 69.981 257.190,70.855 255.722,71.261 255.138 C 71.667 254.554,72.000 253.977,72.000 253.856 C 72.000 253.734,72.566 252.682,73.259 251.518 C 73.951 250.353,75.058 248.410,75.720 247.200 C 76.381 245.990,77.255 244.522,77.661 243.938 C 78.067 243.354,78.400 242.766,78.400 242.631 C 78.400 242.496,79.120 241.200,80.000 239.752 C 80.880 238.303,81.600 237.055,81.600 236.977 C 81.600 236.899,82.166 235.882,82.859 234.718 C 83.551 233.553,84.658 231.610,85.320 230.400 C 85.981 229.190,86.855 227.722,87.261 227.138 C 87.667 226.554,88.000 225.977,88.000 225.856 C 88.000 225.734,88.566 224.682,89.259 223.518 C 89.951 222.353,91.058 220.410,91.720 219.200 C 92.381 217.990,93.255 216.522,93.661 215.938 C 94.067 215.354,94.400 214.777,94.400 214.656 C 94.400 214.534,94.966 213.482,95.659 212.318 C 96.351 211.153,97.458 209.210,98.120 208.000 C 98.781 206.790,99.655 205.322,100.061 204.738 C 100.467 204.154,100.800 203.577,100.800 203.456 C 100.800 203.334,101.366 202.282,102.059 201.118 C 102.751 199.953,103.858 198.010,104.520 196.800 C 105.181 195.590,106.055 194.122,106.461 193.538 C 106.867 192.954,107.200 192.377,107.200 192.256 C 107.200 192.134,107.766 191.082,108.459 189.918 C 109.151 188.753,110.258 186.810,110.920 185.600 C 111.581 184.390,112.455 182.922,112.861 182.338 C 113.267 181.754,113.600 181.177,113.600 181.056 C 113.600 180.934,114.166 179.882,114.859 178.718 C 115.551 177.553,116.658 175.610,117.320 174.400 C 117.981 173.190,118.855 171.722,119.261 171.138 C 119.667 170.554,120.000 169.977,120.000 169.856 C 120.000 169.734,120.566 168.682,121.259 167.518 C 121.951 166.353,123.058 164.410,123.720 163.200 C 124.381 161.990,125.255 160.522,125.661 159.938 C 126.067 159.354,126.400 158.777,126.400 158.656 C 126.400 158.534,126.966 157.482,127.659 156.318 C 128.351 155.153,129.458 153.210,130.120 152.000 C 130.781 150.790,131.655 149.322,132.061 148.738 C 132.467 148.154,132.800 147.577,132.800 147.456 C 132.800 147.334,133.366 146.282,134.059 145.118 C 134.751 143.953,135.858 142.010,136.520 140.800 C 137.181 139.590,138.055 138.122,138.461 137.538 C 138.867 136.954,139.200 136.377,139.200 136.256 C 139.200 136.134,139.766 135.082,140.459 133.918 C 141.151 132.753,142.258 130.810,142.920 129.600 C 143.581 128.390,144.455 126.922,144.861 126.338 C 145.267 125.754,145.600 125.177,145.600 125.056 C 145.600 124.934,146.166 123.882,146.859 122.718 C 147.551 121.553,148.658 119.610,149.320 118.400 C 149.981 117.190,150.855 115.722,151.261 115.138 C 151.667 114.554,152.000 113.977,152.000 113.856 C 152.000 113.734,152.566 112.682,153.259 111.518 C 153.951 110.353,155.058 108.410,155.720 107.200 C 156.381 105.990,157.255 104.522,157.661 103.938 C 158.067 103.354,158.400 102.777,158.400 102.656 C 158.400 102.534,158.966 101.482,159.659 100.318 C 160.351 99.153,161.443 97.251,162.085 96.091 L 163.252 93.981 158.291 85.312 C 155.563 80.544,153.149 76.583,152.929 76.510 C 152.708 76.436,123.879 126.511,88.864 187.788 M251.724 76.899 C 251.546 77.173,248.677 82.152,245.348 87.963 L 239.297 98.529 240.448 100.482 C 241.082 101.556,241.600 102.534,241.600 102.656 C 241.600 102.777,241.933 103.354,242.339 103.938 C 242.745 104.522,243.619 105.990,244.280 107.200 C 244.942 108.410,246.049 110.353,246.741 111.518 C 247.434 112.682,248.000 113.734,248.000 113.856 C 248.000 113.977,248.333 114.554,248.739 115.138 C 249.145 115.722,250.019 117.190,250.680 118.400 C 251.342 119.610,252.449 121.553,253.141 122.718 C 253.834 123.882,254.400 124.934,254.400 125.056 C 254.400 125.177,254.733 125.754,255.139 126.338 C 255.545 126.922,256.419 128.390,257.080 129.600 C 257.742 130.810,258.849 132.753,259.541 133.918 C 260.234 135.082,260.800 136.134,260.800 136.256 C 260.800 136.377,261.133 136.954,261.539 137.538 C 261.945 138.122,262.819 139.590,263.480 140.800 C 264.142 142.010,265.249 143.953,265.941 145.118 C 266.634 146.282,267.200 147.334,267.200 147.456 C 267.200 147.577,267.533 148.154,267.939 148.738 C 268.345 149.322,269.219 150.790,269.880 152.000 C 270.542 153.210,271.649 155.153,272.341 156.318 C 273.034 157.482,273.600 158.534,273.600 158.656 C 273.600 158.777,273.933 159.354,274.339 159.938 C 274.745 160.522,275.619 161.990,276.280 163.200 C 276.942 164.410,278.049 166.353,278.741 167.518 C 279.434 168.682,280.000 169.734,280.000 169.856 C 280.000 169.977,280.333 170.554,280.739 171.138 C 281.145 171.722,282.019 173.190,282.680 174.400 C 283.342 175.610,284.449 177.553,285.141 178.718 C 285.834 179.882,286.400 180.934,286.400 181.056 C 286.400 181.177,286.733 181.754,287.139 182.338 C 287.545 182.922,288.419 184.390,289.080 185.600 C 289.742 186.810,290.849 188.753,291.541 189.918 C 292.234 191.082,292.800 192.134,292.800 192.256 C 292.800 192.377,293.133 192.954,293.539 193.538 C 293.945 194.122,294.819 195.590,295.480 196.800 C 296.142 198.010,297.249 199.953,297.941 201.118 C 298.634 202.282,299.200 203.334,299.200 203.456 C 299.200 203.577,299.533 204.154,299.939 204.738 C 300.345 205.322,301.219 206.790,301.880 208.000 C 302.542 209.210,303.649 211.153,304.341 212.318 C 305.034 213.482,305.600 214.534,305.600 214.656 C 305.600 214.777,305.933 215.354,306.339 215.938 C 306.745 216.522,307.619 217.990,308.280 219.200 C 308.942 220.410,310.049 222.353,310.741 223.518 C 311.434 224.682,312.000 225.734,312.000 225.856 C 312.000 225.977,312.333 226.554,312.739 227.138 C 313.145 227.722,314.019 229.190,314.680 230.400 C 315.342 231.610,316.449 233.553,317.141 234.718 C 317.834 235.882,318.400 236.899,318.400 236.977 C 318.400 237.055,319.120 238.303,320.000 239.752 C 320.880 241.200,321.600 242.496,321.600 242.631 C 321.600 242.766,321.933 243.354,322.339 243.938 C 322.745 244.522,323.619 245.990,324.280 247.200 C 324.942 248.410,326.049 250.353,326.741 251.518 C 327.434 252.682,328.000 253.734,328.000 253.856 C 328.000 253.977,328.333 254.554,328.739 255.138 C 329.145 255.722,330.019 257.190,330.680 258.400 C 331.342 259.610,332.449 261.553,333.141 262.718 C 333.834 263.882,334.400 264.934,334.400 265.056 C 334.400 265.177,334.733 265.754,335.139 266.338 C 335.545 266.922,336.419 268.390,337.080 269.600 C 337.742 270.810,338.849 272.753,339.541 273.918 C 340.234 275.082,340.800 276.134,340.800 276.256 C 340.800 276.377,341.133 276.954,341.539 277.538 C 341.945 278.122,342.819 279.590,343.480 280.800 C 344.142 282.010,345.249 283.953,345.941 285.118 C 346.634 286.282,347.200 287.334,347.200 287.456 C 347.200 287.577,347.533 288.154,347.939 288.738 C 348.345 289.322,349.219 290.790,349.880 292.000 C 350.542 293.210,351.652 295.190,352.349 296.400 C 353.045 297.610,353.766 298.870,353.951 299.200 C 354.433 300.061,380.135 300.321,379.930 299.463 C 379.710 298.535,252.648 76.400,252.338 76.400 C 252.178 76.400,251.902 76.624,251.724 76.899 M45.462 346.331 C 45.098 346.734,44.800 347.165,44.800 347.291 C 44.800 347.416,44.080 348.703,43.200 350.152 C 42.320 351.600,41.600 352.896,41.600 353.031 C 41.600 353.166,41.267 353.754,40.861 354.338 C 40.455 354.922,39.581 356.390,38.920 357.600 C 38.258 358.810,37.151 360.753,36.459 361.918 C 35.766 363.082,35.200 364.095,35.200 364.169 C 35.200 364.243,34.570 365.349,33.800 366.628 C 33.030 367.907,32.400 369.189,32.400 369.476 C 32.400 369.907,62.169 370.000,200.000 370.000 C 337.831 370.000,367.600 369.907,367.600 369.476 C 367.600 369.189,366.970 367.907,366.200 366.628 C 365.430 365.349,364.800 364.232,364.800 364.144 C 364.800 364.057,364.080 362.800,363.200 361.352 C 362.320 359.903,361.600 358.655,361.600 358.577 C 361.600 358.499,361.034 357.482,360.341 356.318 C 359.649 355.153,358.542 353.210,357.880 352.000 C 357.219 350.790,356.345 349.322,355.939 348.738 C 355.533 348.154,355.200 347.507,355.200 347.300 C 355.200 347.093,354.871 346.626,354.469 346.262 C 353.271 345.178,46.443 345.247,45.462 346.331 " stroke="none" fill="#3d3c44" fill-rule="evenodd"></path><path id="path2" d="M0.000 200.000 L 0.000 400.000 200.000 400.000 L 400.000 400.000 400.000 200.000 L 400.000 0.000 200.000 0.000 L 0.000 0.000 0.000 200.000 M201.505 32.416 C 202.059 33.397,202.848 34.785,203.257 35.500 C 203.665 36.215,204.360 37.430,204.800 38.200 C 205.240 38.970,205.960 40.230,206.400 41.000 C 206.840 41.770,207.560 43.030,208.000 43.800 C 208.440 44.570,209.160 45.830,209.600 46.600 C 210.040 47.370,210.760 48.630,211.200 49.400 C 211.640 50.170,212.360 51.430,212.800 52.200 C 213.240 52.970,213.960 54.230,214.400 55.000 C 214.840 55.770,215.560 57.030,216.000 57.800 C 216.440 58.570,217.160 59.830,217.600 60.600 C 218.040 61.370,218.760 62.630,219.200 63.400 C 219.640 64.170,220.360 65.430,220.800 66.200 C 221.240 66.970,221.960 68.230,222.400 69.000 C 222.840 69.770,223.560 71.030,224.000 71.800 C 224.440 72.570,225.160 73.830,225.600 74.600 C 226.040 75.370,226.760 76.630,227.200 77.400 C 227.640 78.170,228.360 79.430,228.800 80.200 C 229.240 80.970,229.960 82.230,230.400 83.000 C 230.840 83.770,231.560 85.030,232.000 85.800 C 232.440 86.570,233.160 87.830,233.600 88.600 C 234.040 89.370,234.735 90.585,235.143 91.300 C 235.552 92.015,236.370 93.410,236.961 94.400 C 237.552 95.390,238.138 96.515,238.264 96.900 C 238.699 98.229,239.809 97.645,240.925 95.500 C 241.526 94.345,242.489 92.590,243.065 91.600 C 244.052 89.905,244.423 89.259,246.400 85.800 C 246.840 85.030,247.560 83.770,248.000 83.000 C 250.021 79.463,250.558 78.522,251.176 77.427 C 252.115 75.765,252.531 75.777,253.460 77.493 C 253.909 78.322,254.665 79.675,255.138 80.500 C 255.612 81.325,256.360 82.630,256.800 83.400 C 257.240 84.170,257.960 85.430,258.400 86.200 C 258.840 86.970,259.560 88.230,260.000 89.000 C 260.440 89.770,261.160 91.030,261.600 91.800 C 262.040 92.570,262.760 93.830,263.200 94.600 C 263.640 95.370,264.360 96.630,264.800 97.400 C 265.240 98.170,265.960 99.430,266.400 100.200 C 266.840 100.970,267.560 102.230,268.000 103.000 C 268.440 103.770,269.187 105.075,269.659 105.900 C 270.131 106.725,271.059 108.390,271.720 109.600 C 272.381 110.810,273.255 112.278,273.661 112.862 C 274.067 113.446,274.400 114.023,274.400 114.144 C 274.400 114.266,274.966 115.318,275.659 116.482 C 276.351 117.647,277.458 119.590,278.120 120.800 C 278.781 122.010,279.655 123.478,280.061 124.062 C 280.467 124.646,280.800 125.223,280.800 125.344 C 280.800 125.466,281.366 126.518,282.059 127.682 C 282.751 128.847,283.858 130.790,284.520 132.000 C 285.181 133.210,286.055 134.678,286.461 135.262 C 286.867 135.846,287.200 136.423,287.200 136.544 C 287.200 136.666,287.766 137.718,288.459 138.882 C 289.151 140.047,290.258 141.990,290.920 143.200 C 291.581 144.410,292.455 145.878,292.861 146.462 C 293.267 147.046,293.600 147.623,293.600 147.744 C 293.600 147.866,294.166 148.918,294.859 150.082 C 295.551 151.247,296.658 153.190,297.320 154.400 C 297.981 155.610,298.855 157.078,299.261 157.662 C 299.667 158.246,300.000 158.823,300.000 158.944 C 300.000 159.066,300.566 160.118,301.259 161.282 C 301.951 162.447,303.058 164.390,303.720 165.600 C 304.381 166.810,305.255 168.278,305.661 168.862 C 306.067 169.446,306.400 170.034,306.400 170.169 C 306.400 170.304,307.120 171.600,308.000 173.048 C 308.880 174.497,309.600 175.745,309.600 175.823 C 309.600 175.901,310.166 176.918,310.859 178.082 C 311.551 179.247,312.658 181.190,313.320 182.400 C 313.981 183.610,314.855 185.078,315.261 185.662 C 315.667 186.246,316.000 186.823,316.000 186.944 C 316.000 187.066,316.566 188.118,317.259 189.282 C 317.951 190.447,319.058 192.390,319.720 193.600 C 320.381 194.810,321.255 196.278,321.661 196.862 C 322.067 197.446,322.400 198.023,322.400 198.144 C 322.400 198.266,322.966 199.318,323.659 200.482 C 324.351 201.647,325.458 203.590,326.120 204.800 C 326.781 206.010,327.655 207.478,328.061 208.062 C 328.467 208.646,328.800 209.223,328.800 209.344 C 328.800 209.466,329.366 210.518,330.059 211.682 C 330.751 212.847,331.858 214.790,332.520 216.000 C 333.181 217.210,334.055 218.678,334.461 219.262 C 334.867 219.846,335.200 220.423,335.200 220.544 C 335.200 220.666,335.766 221.718,336.459 222.882 C 337.151 224.047,338.258 225.990,338.920 227.200 C 339.581 228.410,340.455 229.878,340.861 230.462 C 341.267 231.046,341.600 231.623,341.600 231.744 C 341.600 231.866,342.166 232.918,342.859 234.082 C 343.551 235.247,344.658 237.190,345.320 238.400 C 345.981 239.610,346.855 241.078,347.261 241.662 C 347.667 242.246,348.000 242.823,348.000 242.944 C 348.000 243.066,348.565 244.118,349.256 245.282 C 349.947 246.447,350.965 248.210,351.518 249.200 C 352.071 250.190,358.644 261.710,366.124 274.800 C 373.604 287.890,379.807 298.915,379.908 299.300 C 380.081 299.955,379.325 300.000,368.079 300.000 C 361.472 300.000,355.780 300.109,355.432 300.243 C 354.768 300.498,355.447 301.992,358.738 307.518 C 359.432 308.682,360.000 309.734,360.000 309.856 C 360.000 309.977,360.333 310.554,360.739 311.138 C 361.145 311.722,362.019 313.190,362.680 314.400 C 363.342 315.610,364.449 317.553,365.141 318.718 C 365.834 319.882,366.400 320.934,366.400 321.056 C 366.400 321.177,366.733 321.754,367.139 322.338 C 367.545 322.922,368.419 324.390,369.080 325.600 C 369.742 326.810,370.849 328.753,371.541 329.918 C 372.234 331.082,372.800 332.099,372.800 332.177 C 372.800 332.255,373.520 333.503,374.400 334.952 C 375.280 336.400,376.000 337.696,376.000 337.831 C 376.000 337.966,376.333 338.554,376.739 339.138 C 377.777 340.629,380.000 344.775,380.000 345.219 C 380.000 345.435,374.807 345.633,367.500 345.694 C 356.018 345.791,355.009 345.855,355.112 346.476 C 355.174 346.848,358.085 352.154,361.580 358.266 C 365.076 364.378,367.850 369.519,367.745 369.689 C 367.494 370.096,32.506 370.096,32.255 369.689 C 32.150 369.519,34.924 364.378,38.420 358.266 C 41.915 352.154,44.826 346.848,44.888 346.476 C 44.991 345.855,43.982 345.791,32.500 345.694 C 23.651 345.619,20.000 345.459,20.000 345.143 C 20.000 344.899,25.597 334.905,32.437 322.935 C 39.605 310.393,44.779 300.923,44.650 300.586 C 44.461 300.093,42.859 300.000,34.613 300.000 C 29.216 300.000,24.800 299.915,24.800 299.812 C 24.800 299.604,25.654 298.070,27.544 294.882 C 28.235 293.718,28.800 292.666,28.800 292.544 C 28.800 292.423,29.133 291.846,29.539 291.262 C 29.945 290.678,30.819 289.210,31.480 288.000 C 32.142 286.790,33.249 284.847,33.941 283.682 C 34.634 282.518,35.200 281.466,35.200 281.344 C 35.200 281.223,35.533 280.646,35.939 280.062 C 36.345 279.478,37.219 278.010,37.880 276.800 C 38.542 275.590,39.649 273.647,40.341 272.482 C 41.034 271.318,41.600 270.266,41.600 270.144 C 41.600 270.023,41.933 269.446,42.339 268.862 C 42.745 268.278,43.619 266.810,44.280 265.600 C 44.942 264.390,46.049 262.447,46.741 261.282 C 47.434 260.118,48.000 259.066,48.000 258.944 C 48.000 258.823,48.333 258.246,48.739 257.662 C 49.145 257.078,50.019 255.610,50.680 254.400 C 51.342 253.190,52.449 251.247,53.141 250.082 C 53.834 248.918,54.400 247.866,54.400 247.744 C 54.400 247.623,54.733 247.046,55.139 246.462 C 55.545 245.878,56.419 244.410,57.080 243.200 C 57.742 241.990,58.849 240.047,59.541 238.882 C 60.234 237.718,60.800 236.666,60.800 236.544 C 60.800 236.423,61.133 235.846,61.539 235.262 C 61.945 234.678,62.819 233.210,63.480 232.000 C 64.142 230.790,65.249 228.847,65.941 227.682 C 66.634 226.518,67.200 225.466,67.200 225.344 C 67.200 225.223,67.533 224.646,67.939 224.062 C 68.345 223.478,69.219 222.010,69.880 220.800 C 70.542 219.590,71.649 217.647,72.341 216.482 C 73.034 215.318,73.600 214.266,73.600 214.144 C 73.600 214.023,73.933 213.446,74.339 212.862 C 74.745 212.278,75.619 210.810,76.280 209.600 C 76.942 208.390,78.049 206.447,78.741 205.282 C 79.434 204.118,80.000 203.066,80.000 202.944 C 80.000 202.823,80.333 202.246,80.739 201.662 C 81.145 201.078,82.019 199.610,82.680 198.400 C 83.342 197.190,84.449 195.247,85.141 194.082 C 85.834 192.918,86.400 191.866,86.400 191.744 C 86.400 191.623,86.733 191.046,87.139 190.462 C 87.545 189.878,88.419 188.410,89.080 187.200 C 89.742 185.990,90.849 184.047,91.541 182.882 C 92.234 181.718,92.800 180.701,92.800 180.623 C 92.800 180.545,93.520 179.297,94.400 177.848 C 95.280 176.400,96.000 175.104,96.000 174.969 C 96.000 174.834,96.333 174.246,96.739 173.662 C 97.145 173.078,98.019 171.610,98.680 170.400 C 99.342 169.190,100.449 167.247,101.141 166.082 C 101.834 164.918,102.400 163.866,102.400 163.744 C 102.400 163.623,102.733 163.046,103.139 162.462 C 103.545 161.878,104.419 160.410,105.080 159.200 C 105.741 157.990,106.669 156.325,107.141 155.500 C 107.613 154.675,108.360 153.370,108.800 152.600 C 109.240 151.830,109.960 150.570,110.400 149.800 C 110.840 149.030,111.560 147.770,112.000 147.000 C 112.440 146.230,113.160 144.970,113.600 144.200 C 114.040 143.430,114.760 142.170,115.200 141.400 C 115.640 140.630,116.360 139.370,116.800 138.600 C 117.240 137.830,117.960 136.570,118.400 135.800 C 118.840 135.030,119.560 133.770,120.000 133.000 C 120.440 132.230,121.160 130.970,121.600 130.200 C 122.040 129.430,122.760 128.170,123.200 127.400 C 123.640 126.630,124.360 125.370,124.800 124.600 C 125.240 123.830,125.960 122.570,126.400 121.800 C 126.840 121.030,127.560 119.770,128.000 119.000 C 128.440 118.230,129.160 116.970,129.600 116.200 C 130.040 115.430,130.760 114.170,131.200 113.400 C 131.640 112.630,132.360 111.370,132.800 110.600 C 133.240 109.830,133.960 108.570,134.400 107.800 C 134.840 107.030,135.560 105.770,136.000 105.000 C 136.440 104.230,137.160 102.970,137.600 102.200 C 138.040 101.430,138.760 100.170,139.200 99.400 C 139.640 98.630,140.360 97.370,140.800 96.600 C 141.240 95.830,141.960 94.570,142.400 93.800 C 142.840 93.030,143.560 91.770,144.000 91.000 C 144.440 90.230,145.160 88.970,145.600 88.200 C 146.040 87.430,146.760 86.170,147.200 85.400 C 147.640 84.630,148.360 83.370,148.800 82.600 C 149.682 81.056,150.835 79.025,151.662 77.555 C 152.490 76.086,152.939 75.943,153.691 76.910 C 154.071 77.400,154.386 77.938,154.391 78.107 C 154.396 78.276,155.120 79.600,156.000 81.048 C 156.880 82.497,157.600 83.745,157.600 83.823 C 157.600 83.901,158.167 84.918,158.860 86.082 C 159.554 87.247,160.712 89.280,161.433 90.600 C 163.018 93.497,163.585 93.693,164.657 91.714 C 165.108 90.881,165.865 89.525,166.338 88.700 C 166.812 87.875,167.560 86.570,168.000 85.800 C 168.440 85.030,169.160 83.770,169.600 83.000 C 170.040 82.230,170.760 80.970,171.200 80.200 C 171.640 79.430,172.360 78.170,172.800 77.400 C 173.240 76.630,173.960 75.370,174.400 74.600 C 174.840 73.830,175.560 72.570,176.000 71.800 C 176.440 71.030,177.160 69.770,177.600 69.000 C 178.040 68.230,178.760 66.970,179.200 66.200 C 179.640 65.430,180.360 64.170,180.800 63.400 C 181.240 62.630,181.960 61.370,182.400 60.600 C 182.840 59.830,183.560 58.570,184.000 57.800 C 184.440 57.030,185.160 55.770,185.600 55.000 C 186.040 54.230,186.760 52.970,187.200 52.200 C 187.640 51.430,188.360 50.170,188.800 49.400 C 189.240 48.630,189.960 47.370,190.400 46.600 C 190.840 45.830,191.560 44.570,192.000 43.800 C 192.440 43.030,193.160 41.770,193.600 41.000 C 194.040 40.230,194.760 38.970,195.200 38.200 C 195.640 37.430,196.360 36.170,196.800 35.400 C 197.240 34.630,197.980 33.325,198.444 32.500 C 198.908 31.675,199.375 30.855,199.481 30.679 C 199.844 30.073,200.497 30.634,201.505 32.416 M208.800 151.630 C 208.800 151.866,209.790 153.097,211.000 154.366 L 213.200 156.672 213.200 161.887 C 213.200 167.517,213.117 167.750,211.000 168.095 C 210.340 168.203,208.387 168.597,206.661 168.970 C 203.478 169.658,196.696 169.671,193.658 168.996 C 191.791 168.580,192.419 169.700,195.300 171.923 C 197.842 173.884,200.311 174.338,204.400 173.597 C 205.830 173.337,207.900 172.971,209.000 172.783 C 210.100 172.594,211.990 172.254,213.200 172.027 C 216.543 171.399,225.102 170.460,231.800 169.987 C 240.914 169.343,243.605 168.565,242.543 166.882 C 241.387 165.049,236.713 163.730,233.526 164.338 C 232.357 164.561,229.870 164.951,228.000 165.206 C 226.130 165.460,223.845 165.833,222.923 166.034 C 222.000 166.235,220.605 166.400,219.823 166.400 L 218.400 166.400 218.400 164.128 C 218.400 161.888,218.772 160.282,219.896 157.666 C 221.004 155.090,220.056 154.048,214.908 152.181 C 212.119 151.170,208.800 150.870,208.800 151.630 M171.200 153.130 C 171.200 153.312,171.662 153.894,172.226 154.424 C 174.379 156.447,174.600 157.527,174.600 166.039 C 174.600 175.064,174.692 174.814,171.124 175.534 C 169.736 175.815,167.970 176.200,167.200 176.390 C 163.382 177.334,161.175 177.600,157.169 177.600 C 151.386 177.600,151.264 178.440,156.649 181.162 C 159.445 182.575,160.255 182.647,163.480 181.769 C 167.427 180.694,171.757 179.544,172.700 179.320 C 173.913 179.032,173.859 179.366,171.993 183.682 C 167.854 193.258,160.597 204.667,152.416 214.457 C 149.429 218.032,149.745 218.763,153.044 215.905 C 159.561 210.258,166.143 202.413,171.844 193.500 C 174.048 190.054,174.817 189.321,174.783 190.700 C 174.759 191.672,174.062 203.339,173.583 210.800 C 172.359 229.849,172.618 236.420,174.681 238.649 C 177.514 241.709,177.742 239.925,178.356 209.859 C 178.579 198.949,178.880 191.760,179.123 191.517 C 179.389 191.251,180.862 192.400,183.536 194.959 C 187.615 198.862,188.317 199.264,189.196 198.205 C 190.818 196.250,187.395 191.580,183.200 190.025 C 182.430 189.740,181.210 189.246,180.489 188.929 L 179.177 188.352 179.289 183.076 L 179.400 177.800 182.800 177.511 C 189.216 176.966,190.186 176.719,190.310 175.597 C 190.551 173.416,184.383 171.449,182.346 173.057 C 182.045 173.294,181.215 173.598,180.500 173.734 L 179.200 173.980 179.208 171.090 C 179.216 168.215,179.937 163.470,180.773 160.800 C 181.679 157.905,180.622 156.283,176.347 154.004 C 174.226 152.873,171.200 152.360,171.200 153.130 M221.600 176.529 C 221.600 177.288,229.478 184.768,235.200 189.443 C 235.970 190.072,236.690 190.689,236.800 190.814 C 238.369 192.597,241.600 192.559,241.600 190.757 C 241.600 187.106,237.792 183.536,229.715 179.614 C 226.462 178.034,223.487 176.575,223.105 176.371 C 222.135 175.853,221.600 175.909,221.600 176.529 M199.027 179.156 C 198.880 179.394,199.235 180.400,199.816 181.391 L 200.872 183.193 199.159 186.683 C 198.217 188.602,196.402 191.889,195.125 193.986 C 192.785 197.829,192.410 198.800,193.267 198.800 C 193.804 198.800,208.400 184.037,208.400 183.493 C 208.400 181.459,200.005 177.574,199.027 179.156 M220.287 188.246 C 220.152 188.382,220.498 189.367,221.057 190.437 C 222.582 193.353,221.680 196.962,217.218 205.800 C 214.958 210.276,214.522 210.395,211.846 207.277 C 206.609 201.174,205.238 200.000,203.353 200.000 C 201.189 200.000,201.178 200.231,203.243 202.219 C 205.408 204.303,210.903 211.064,211.726 212.657 C 212.584 214.316,211.898 215.254,204.753 222.211 C 197.787 228.993,196.089 230.390,189.500 234.754 C 182.962 239.086,182.117 240.421,187.247 238.317 C 195.132 235.081,203.436 229.369,211.980 221.300 L 215.761 217.731 225.033 227.165 L 234.305 236.600 241.133 236.600 C 250.391 236.600,250.812 236.163,244.600 233.002 C 239.696 230.506,229.308 223.850,227.000 221.724 C 226.560 221.318,224.815 219.861,223.121 218.485 C 221.428 217.109,219.683 215.478,219.244 214.861 L 218.444 213.739 219.281 212.369 C 220.936 209.662,221.781 208.135,223.914 204.000 C 226.552 198.887,227.502 197.255,228.478 196.160 C 229.848 194.623,228.510 192.682,223.922 189.553 C 221.724 188.055,220.808 187.725,220.287 188.246 M116.597 261.700 C 116.478 262.195,116.429 276.550,116.490 293.600 L 116.600 324.600 138.800 324.600 L 161.000 324.600 161.000 318.000 L 161.000 311.400 146.600 311.200 L 132.200 311.000 132.089 305.506 L 131.977 300.012 144.289 299.906 L 156.600 299.800 156.600 293.000 L 156.600 286.200 144.400 286.000 L 132.200 285.800 132.200 280.400 L 132.200 275.000 146.600 274.800 L 161.000 274.600 161.115 268.600 C 161.178 265.300,161.129 262.195,161.007 261.700 L 160.785 260.800 138.800 260.800 L 116.815 260.800 116.597 261.700 M229.076 261.058 C 228.499 261.634,228.765 299.623,229.367 302.600 C 231.278 312.060,237.766 319.677,246.800 323.066 C 261.336 328.519,277.286 320.707,282.458 305.600 C 283.346 303.003,284.187 264.794,283.422 261.747 L 283.180 260.781 276.290 260.891 L 269.400 261.000 269.200 281.216 L 269.000 301.433 267.600 303.752 C 262.908 311.524,252.639 312.546,246.297 305.870 C 245.307 304.828,244.926 304.162,243.743 301.400 C 243.554 300.960,243.310 291.690,243.200 280.800 L 243.000 261.000 236.176 260.891 C 232.422 260.831,229.227 260.906,229.076 261.058 M167.067 261.867 C 166.672 262.261,166.755 324.109,167.151 324.734 C 167.666 325.547,196.569 325.151,199.400 324.293 C 223.817 316.885,231.285 287.403,213.113 270.155 C 208.761 266.023,204.530 263.731,198.400 262.184 C 196.080 261.598,167.623 261.310,167.067 261.867 M195.148 276.581 C 201.324 278.225,205.181 281.847,207.595 288.271 C 209.172 292.467,207.745 299.919,204.634 303.737 C 200.433 308.893,196.691 310.400,188.089 310.400 L 182.400 310.400 182.400 293.200 L 182.400 276.000 187.700 276.005 C 191.011 276.008,193.806 276.224,195.148 276.581 " stroke="none" fill="#fbfbfb" fill-rule="evenodd"></path></g></svg>