<svg id="svg" version="1.1" xmlns="http://www.w3.org/2000/svg" xmlns:xlink="http://www.w3.org/1999/xlink" width="400" height="400" viewBox="0, 0, 400,400"><g id="svgg"><path id="path0" d="M199.481 30.679 C 199.375 30.855,198.908 31.675,198.444 32.500 C 197.980 33.325,197.240 34.630,196.800 35.400 C 196.360 36.170,195.640 37.430,195.200 38.200 C 194.760 38.970,194.040 40.230,193.600 41.000 C 193.160 41.770,192.440 43.030,192.000 43.800 C 191.560 44.570,190.840 45.830,190.400 46.600 C 189.960 47.370,189.240 48.630,188.800 49.400 C 188.360 50.170,187.640 51.430,187.200 52.200 C 186.760 52.970,186.040 54.230,185.600 55.000 C 185.160 55.770,184.440 57.030,184.000 57.800 C 183.560 58.570,182.840 59.830,182.400 60.600 C 181.960 61.370,181.240 62.630,180.800 63.400 C 180.360 64.170,179.640 65.430,179.200 66.200 C 178.760 66.970,178.040 68.230,177.600 69.000 C 177.160 69.770,176.440 71.030,176.000 71.800 C 175.560 72.570,174.840 73.830,174.400 74.600 C 173.960 75.370,173.240 76.630,172.800 77.400 C 172.360 78.170,171.640 79.430,171.200 80.200 C 170.760 80.970,170.040 82.230,169.600 83.000 C 169.160 83.770,168.440 85.030,168.000 85.800 C 167.560 86.570,166.812 87.875,166.338 88.700 C 165.865 89.525,165.111 90.875,164.664 91.700 C 164.217 92.525,163.604 93.200,163.302 93.200 C 163.000 93.200,162.863 93.379,162.999 93.598 C 163.221 93.958,162.558 95.335,160.059 99.700 C 159.587 100.525,158.840 101.830,158.400 102.600 C 157.960 103.370,157.240 104.630,156.800 105.400 C 156.360 106.170,155.640 107.430,155.200 108.200 C 154.760 108.970,154.040 110.230,153.600 111.000 C 153.160 111.770,152.440 113.030,152.000 113.800 C 151.560 114.570,150.840 115.830,150.400 116.600 C 148.420 120.065,148.038 120.724,146.856 122.718 C 146.165 123.882,145.600 124.934,145.600 125.056 C 145.600 125.177,145.267 125.754,144.861 126.338 C 144.455 126.922,143.581 128.390,142.920 129.600 C 142.258 130.810,141.151 132.753,140.459 133.918 C 139.766 135.082,139.200 136.134,139.200 136.256 C 139.200 136.377,138.867 136.954,138.461 137.538 C 138.055 138.122,137.181 139.590,136.520 140.800 C 135.858 142.010,134.751 143.953,134.059 145.118 C 133.366 146.282,132.800 147.334,132.800 147.456 C 132.800 147.577,132.467 148.154,132.061 148.738 C 131.655 149.322,130.781 150.790,130.120 152.000 C 129.458 153.210,128.351 155.153,127.659 156.318 C 126.966 157.482,126.400 158.534,126.400 158.656 C 126.400 158.777,126.067 159.354,125.661 159.938 C 125.255 160.522,124.381 161.990,123.720 163.200 C 123.058 164.410,121.951 166.353,121.259 167.518 C 120.566 168.682,120.000 169.734,120.000 169.856 C 120.000 169.977,119.667 170.554,119.261 171.138 C 118.855 171.722,117.981 173.190,117.320 174.400 C 116.658 175.610,115.551 177.553,114.859 178.718 C 114.166 179.882,113.600 180.934,113.600 181.056 C 113.600 181.177,113.267 181.754,112.861 182.338 C 112.455 182.922,111.581 184.390,110.920 185.600 C 110.258 186.810,109.151 188.753,108.459 189.918 C 107.766 191.082,107.200 192.134,107.200 192.256 C 107.200 192.377,106.867 192.954,106.461 193.538 C 106.055 194.122,105.181 195.590,104.520 196.800 C 103.858 198.010,102.751 199.953,102.059 201.118 C 101.366 202.282,100.800 203.334,100.800 203.456 C 100.800 203.577,100.467 204.154,100.061 204.738 C 99.655 205.322,98.781 206.790,98.120 208.000 C 97.458 209.210,96.351 211.153,95.659 212.318 C 94.966 213.482,94.400 214.499,94.400 214.577 C 94.400 214.655,93.680 215.903,92.800 217.352 C 91.920 218.800,91.200 220.096,91.200 220.231 C 91.200 220.366,90.867 220.954,90.461 221.538 C 90.055 222.122,89.181 223.590,88.520 224.800 C 87.858 226.010,86.751 227.953,86.059 229.118 C 85.366 230.282,84.800 231.334,84.800 231.456 C 84.800 231.577,84.467 232.154,84.061 232.738 C 83.655 233.322,82.781 234.790,82.120 236.000 C 81.458 237.210,80.351 239.153,79.659 240.318 C 78.966 241.482,78.400 242.534,78.400 242.656 C 78.400 242.777,78.067 243.354,77.661 243.938 C 77.255 244.522,76.381 245.990,75.720 247.200 C 75.058 248.410,73.951 250.353,73.259 251.518 C 72.566 252.682,72.000 253.734,72.000 253.856 C 72.000 253.977,71.667 254.554,71.261 255.138 C 70.855 255.722,69.981 257.190,69.320 258.400 C 68.658 259.610,67.551 261.553,66.859 262.718 C 66.166 263.882,65.600 264.934,65.600 265.056 C 65.600 265.177,65.267 265.754,64.861 266.338 C 64.455 266.922,63.581 268.390,62.920 269.600 C 62.258 270.810,61.151 272.753,60.459 273.918 C 59.766 275.082,59.200 276.134,59.200 276.256 C 59.200 276.377,58.867 276.954,58.461 277.538 C 58.055 278.122,57.181 279.590,56.520 280.800 C 55.858 282.010,54.751 283.953,54.059 285.118 C 53.366 286.282,52.800 287.334,52.800 287.456 C 52.800 287.577,52.464 288.154,52.054 288.738 C 51.644 289.322,50.873 290.610,50.341 291.600 C 47.702 296.511,45.474 300.000,44.978 300.000 C 44.657 300.000,44.519 300.246,44.650 300.586 C 44.779 300.923,39.605 310.393,32.437 322.935 C 25.597 334.905,20.000 344.899,20.000 345.143 C 20.000 345.459,23.651 345.619,32.500 345.694 C 43.260 345.785,44.982 345.882,44.870 346.389 C 44.768 346.854,44.901 346.833,45.502 346.289 C 46.684 345.219,353.316 345.219,354.498 346.289 C 355.099 346.833,355.232 346.854,355.130 346.389 C 355.018 345.882,356.740 345.785,367.500 345.694 C 374.807 345.633,380.000 345.435,380.000 345.219 C 380.000 344.775,377.777 340.629,376.739 339.138 C 376.333 338.554,376.000 337.966,376.000 337.831 C 376.000 337.696,375.280 336.400,374.400 334.952 C 373.520 333.503,372.800 332.255,372.800 332.177 C 372.800 332.099,372.234 331.082,371.541 329.918 C 370.849 328.753,369.742 326.810,369.080 325.600 C 368.419 324.390,367.545 322.922,367.139 322.338 C 366.733 321.754,366.400 321.177,366.400 321.056 C 366.400 320.934,365.834 319.882,365.141 318.718 C 364.449 317.553,363.342 315.610,362.680 314.400 C 362.019 313.190,361.145 311.722,360.739 311.138 C 360.333 310.554,360.000 309.977,360.000 309.856 C 360.000 309.734,359.432 308.682,358.738 307.518 C 355.870 302.702,354.754 300.400,355.276 300.375 C 355.564 300.361,355.422 300.197,354.960 300.010 C 354.499 299.823,353.621 298.710,353.010 297.535 C 352.399 296.361,351.562 294.922,351.149 294.338 C 350.737 293.754,350.400 293.177,350.400 293.056 C 350.400 292.934,349.834 291.882,349.141 290.718 C 348.449 289.553,347.342 287.610,346.680 286.400 C 346.019 285.190,345.145 283.722,344.739 283.138 C 344.333 282.554,344.000 281.977,344.000 281.856 C 344.000 281.734,343.434 280.682,342.741 279.518 C 342.049 278.353,340.942 276.410,340.280 275.200 C 339.619 273.990,338.745 272.522,338.339 271.938 C 337.933 271.354,337.600 270.777,337.600 270.656 C 337.600 270.534,337.034 269.482,336.341 268.318 C 335.649 267.153,334.542 265.210,333.880 264.000 C 333.219 262.790,332.345 261.322,331.939 260.738 C 331.533 260.154,331.200 259.577,331.200 259.456 C 331.200 259.334,330.634 258.282,329.941 257.118 C 329.249 255.953,328.142 254.010,327.480 252.800 C 326.819 251.590,325.945 250.122,325.539 249.538 C 325.133 248.954,324.800 248.377,324.800 248.256 C 324.800 248.134,324.234 247.082,323.541 245.918 C 322.849 244.753,321.742 242.810,321.080 241.600 C 320.419 240.390,319.545 238.922,319.139 238.338 C 318.733 237.754,318.400 237.177,318.400 237.056 C 318.400 236.934,317.834 235.882,317.141 234.718 C 316.449 233.553,315.342 231.610,314.680 230.400 C 314.019 229.190,313.145 227.722,312.739 227.138 C 312.333 226.554,312.000 225.977,312.000 225.856 C 312.000 225.734,311.434 224.682,310.741 223.518 C 310.049 222.353,308.942 220.410,308.280 219.200 C 307.619 217.990,306.745 216.522,306.339 215.938 C 305.933 215.354,305.600 214.777,305.600 214.656 C 305.600 214.534,305.034 213.482,304.341 212.318 C 303.649 211.153,302.542 209.210,301.880 208.000 C 301.219 206.790,300.345 205.322,299.939 204.738 C 299.533 204.154,299.200 203.577,299.200 203.456 C 299.200 203.334,298.634 202.282,297.941 201.118 C 297.249 199.953,296.142 198.010,295.480 196.800 C 294.819 195.590,293.945 194.122,293.539 193.538 C 293.133 192.954,292.800 192.377,292.800 192.256 C 292.800 192.134,292.234 191.082,291.541 189.918 C 290.849 188.753,289.742 186.810,289.080 185.600 C 288.419 184.390,287.545 182.922,287.139 182.338 C 286.733 181.754,286.400 181.177,286.400 181.056 C 286.400 180.934,285.835 179.882,285.144 178.718 C 283.962 176.724,283.580 176.065,281.600 172.600 C 281.160 171.830,280.440 170.570,280.000 169.800 C 279.560 169.030,278.840 167.770,278.400 167.000 C 277.960 166.230,277.240 164.970,276.800 164.200 C 276.360 163.430,275.640 162.170,275.200 161.400 C 274.760 160.630,274.040 159.370,273.600 158.600 C 273.160 157.830,272.440 156.570,272.000 155.800 C 271.560 155.030,270.840 153.770,270.400 153.000 C 269.960 152.230,269.240 150.970,268.800 150.200 C 268.360 149.430,267.640 148.170,267.200 147.400 C 266.760 146.630,266.040 145.370,265.600 144.600 C 265.160 143.830,264.440 142.570,264.000 141.800 C 263.560 141.030,262.840 139.770,262.400 139.000 C 261.960 138.230,261.240 136.970,260.800 136.200 C 260.360 135.430,259.640 134.170,259.200 133.400 C 258.760 132.630,258.040 131.370,257.600 130.600 C 257.160 129.830,256.440 128.570,256.000 127.800 C 255.560 127.030,254.840 125.770,254.400 125.000 C 253.960 124.230,253.240 122.970,252.800 122.200 C 252.360 121.430,251.640 120.170,251.200 119.400 C 250.760 118.630,250.040 117.370,249.600 116.600 C 249.160 115.830,248.440 114.570,248.000 113.800 C 247.560 113.030,246.840 111.770,246.400 111.000 C 245.960 110.230,245.240 108.970,244.800 108.200 C 244.360 107.430,243.640 106.170,243.200 105.400 C 242.760 104.630,242.040 103.370,241.600 102.600 C 241.160 101.830,240.469 100.615,240.065 99.900 C 239.661 99.185,239.406 98.375,239.498 98.100 C 239.591 97.825,239.403 97.600,239.080 97.600 C 238.757 97.600,238.390 97.285,238.264 96.900 C 238.138 96.515,237.552 95.390,236.961 94.400 C 236.370 93.410,235.552 92.015,235.143 91.300 C 234.735 90.585,234.040 89.370,233.600 88.600 C 233.160 87.830,232.440 86.570,232.000 85.800 C 231.560 85.030,230.840 83.770,230.400 83.000 C 229.960 82.230,229.240 80.970,228.800 80.200 C 228.360 79.430,227.640 78.170,227.200 77.400 C 226.760 76.630,226.040 75.370,225.600 74.600 C 225.160 73.830,224.440 72.570,224.000 71.800 C 223.560 71.030,222.840 69.770,222.400 69.000 C 221.960 68.230,221.240 66.970,220.800 66.200 C 220.360 65.430,219.640 64.170,219.200 63.400 C 218.760 62.630,218.040 61.370,217.600 60.600 C 217.160 59.830,216.440 58.570,216.000 57.800 C 215.560 57.030,214.840 55.770,214.400 55.000 C 213.960 54.230,213.240 52.970,212.800 52.200 C 212.360 51.430,211.640 50.170,211.200 49.400 C 210.760 48.630,210.040 47.370,209.600 46.600 C 209.160 45.830,208.440 44.570,208.000 43.800 C 207.560 43.030,206.840 41.770,206.400 41.000 C 205.960 40.230,205.240 38.970,204.800 38.200 C 204.360 37.430,203.665 36.215,203.257 35.500 C 202.848 34.785,202.059 33.397,201.505 32.416 C 200.497 30.634,199.844 30.073,199.481 30.679 M217.159 130.879 C 219.771 132.178,222.400 134.412,222.400 135.333 C 222.400 135.848,218.313 138.441,215.400 139.775 C 214.520 140.178,211.428 141.654,208.529 143.054 C 201.179 146.604,200.359 146.191,205.228 141.389 C 208.958 137.710,211.482 134.328,212.032 132.270 C 212.865 129.151,213.395 129.008,217.159 130.879 M187.946 137.766 C 192.176 140.436,192.093 146.341,187.825 146.387 C 186.283 146.404,179.200 139.372,179.200 137.825 C 179.200 136.077,185.206 136.036,187.946 137.766 M220.151 147.005 C 223.558 148.429,221.365 149.910,213.600 151.431 C 211.950 151.754,209.790 152.186,208.800 152.393 C 207.810 152.599,205.811 152.883,204.358 153.024 C 200.766 153.373,200.561 153.548,201.626 155.355 C 202.257 156.424,202.437 157.215,202.276 158.210 C 201.941 160.272,203.915 160.625,209.681 159.535 C 212.280 159.043,213.427 159.234,214.917 160.406 C 216.731 161.833,215.634 162.641,210.600 163.589 C 209.280 163.837,207.331 164.211,206.269 164.420 C 205.208 164.629,203.913 164.800,203.392 164.800 C 201.975 164.800,201.200 166.229,201.200 168.840 C 201.200 171.533,201.772 172.217,203.696 171.828 C 209.772 170.598,216.809 170.303,218.600 171.203 C 220.064 171.938,220.525 174.101,219.322 174.592 C 218.369 174.981,208.479 175.962,205.300 175.983 C 201.297 176.010,200.425 178.329,200.870 187.769 L 201.000 190.537 204.000 190.443 C 205.737 190.388,207.363 190.113,207.863 189.789 C 209.427 188.776,211.982 182.438,211.995 179.543 C 212.003 177.722,214.590 177.640,217.994 179.354 C 221.058 180.897,221.018 181.151,217.091 184.990 C 212.298 189.676,212.249 189.635,221.200 188.413 C 222.630 188.218,225.960 187.850,228.600 187.596 C 231.240 187.342,234.264 186.969,235.320 186.767 C 239.576 185.953,242.210 186.454,245.346 188.673 C 250.455 192.286,249.299 193.757,241.611 193.426 C 223.852 192.660,209.571 192.956,195.200 194.385 C 179.564 195.941,176.276 196.392,165.800 198.423 C 158.437 199.850,156.271 199.761,153.038 197.899 C 149.435 195.824,150.214 194.663,155.495 194.235 C 157.423 194.079,161.160 193.775,163.800 193.560 C 166.440 193.344,171.390 192.997,174.800 192.789 C 182.307 192.330,190.149 191.701,193.400 191.298 L 195.800 191.000 195.800 184.319 C 195.800 176.319,195.888 176.490,192.113 177.117 C 182.246 178.757,176.200 178.469,176.200 176.360 C 176.200 175.509,176.428 175.370,178.200 175.141 C 179.300 174.998,181.730 174.683,183.600 174.441 C 185.470 174.199,188.699 173.822,190.775 173.603 C 196.399 173.012,196.051 173.292,195.916 169.468 L 195.800 166.200 190.400 166.200 C 185.013 166.200,182.906 165.759,182.513 164.549 C 182.301 163.898,183.034 163.701,188.939 162.823 C 195.997 161.775,195.979 161.785,195.995 158.760 C 196.012 155.376,194.550 154.409,189.400 154.399 C 183.733 154.389,178.400 153.527,178.400 152.623 C 178.400 151.969,179.407 151.763,187.600 150.746 C 191.230 150.295,195.370 149.776,196.800 149.593 C 199.656 149.227,205.088 148.198,211.400 146.828 C 214.052 146.252,218.568 146.344,220.151 147.005 M182.851 182.746 C 185.918 184.692,186.818 187.766,184.964 189.969 C 183.128 192.152,181.444 191.063,179.139 186.200 C 176.942 181.566,178.583 180.039,182.851 182.746 M216.681 201.251 C 223.878 204.149,225.656 206.966,222.100 209.838 C 217.019 213.940,215.672 216.893,217.629 219.641 C 219.661 222.494,217.191 223.044,198.000 224.009 C 186.015 224.612,185.846 224.647,185.600 226.563 C 185.388 228.211,184.518 229.085,183.485 228.688 C 182.252 228.215,181.614 226.102,179.594 215.800 C 179.335 214.480,178.961 212.987,178.762 212.481 C 178.563 211.976,178.400 211.278,178.400 210.931 C 178.400 210.583,177.860 209.236,177.200 207.938 C 176.540 206.639,176.000 205.024,176.000 204.349 L 176.000 203.123 177.900 203.337 C 178.945 203.454,180.970 203.729,182.400 203.948 C 185.074 204.356,196.014 203.927,201.200 203.211 C 202.630 203.013,204.957 202.721,206.370 202.561 C 207.784 202.402,209.764 201.957,210.770 201.574 C 212.937 200.748,215.134 200.627,216.681 201.251 M196.200 207.204 C 183.917 207.849,184.170 207.724,184.820 212.818 C 185.085 214.898,185.387 217.468,185.491 218.528 C 185.754 221.198,185.934 221.212,199.000 219.562 C 209.518 218.233,209.234 218.375,210.741 213.696 C 213.031 206.587,212.494 206.347,196.200 207.204 M170.557 261.033 C 170.877 261.866,170.795 272.751,170.460 273.868 C 170.317 274.345,167.322 277.765,163.804 281.468 C 160.286 285.171,156.046 289.640,154.381 291.400 C 150.326 295.687,144.570 301.750,140.080 306.464 C 138.056 308.589,136.400 310.522,136.400 310.760 C 136.400 311.060,141.592 311.223,153.500 311.296 L 170.600 311.400 170.600 318.000 L 170.600 324.600 143.700 324.703 L 116.800 324.806 116.800 317.901 L 116.800 310.996 118.460 309.198 C 119.373 308.209,121.580 305.870,123.363 304.000 C 125.147 302.130,129.755 297.270,133.602 293.200 C 137.450 289.130,141.878 284.450,143.442 282.800 C 149.781 276.111,150.800 274.990,150.800 274.706 C 150.800 274.542,143.195 274.362,133.900 274.304 L 117.000 274.200 116.891 267.300 L 116.781 260.400 143.548 260.400 C 167.586 260.400,170.339 260.464,170.557 261.033 M221.007 261.700 C 221.129 262.195,221.178 265.300,221.115 268.600 L 221.000 274.600 206.600 274.800 L 192.200 275.000 192.200 280.400 L 192.200 285.800 204.400 286.000 L 216.600 286.200 216.600 293.000 L 216.600 299.800 204.289 299.906 L 191.977 300.012 192.089 305.506 L 192.200 311.000 206.600 311.200 L 221.000 311.400 221.000 318.000 L 221.000 324.600 198.800 324.600 L 176.600 324.600 176.490 293.600 C 176.429 276.550,176.478 262.195,176.597 261.700 L 176.815 260.800 198.800 260.800 L 220.785 260.800 221.007 261.700 M283.902 292.700 C 283.963 311.473,283.857 324.400,283.642 324.400 C 283.443 324.400,282.226 323.623,280.940 322.674 C 279.653 321.725,276.440 319.351,273.800 317.398 C 271.160 315.446,267.695 312.893,266.100 311.724 C 260.188 307.394,250.812 300.502,249.600 299.597 C 244.358 295.682,242.527 294.415,242.100 294.408 C 241.709 294.402,241.600 297.702,241.600 309.600 L 241.600 324.800 234.000 324.800 L 226.400 324.800 226.400 293.200 C 226.400 272.855,226.539 261.600,226.792 261.600 C 227.168 261.600,229.483 263.330,240.169 271.600 C 242.870 273.690,245.671 275.850,246.394 276.400 C 247.117 276.950,249.460 278.750,251.600 280.400 C 253.740 282.050,256.084 283.850,256.808 284.400 C 257.532 284.950,260.263 287.065,262.877 289.100 C 269.448 294.215,268.800 295.531,268.800 277.067 C 268.800 268.413,268.924 261.209,269.075 261.058 C 269.227 260.906,272.602 260.831,276.575 260.891 L 283.800 261.000 283.902 292.700 " stroke="none" fill="#d46c1d" fill-rule="evenodd"></path><path id="path1" d="M88.864 187.788 C 53.849 249.064,25.200 299.380,25.200 299.600 C 25.200 299.856,28.854 300.000,35.365 300.000 L 45.530 300.000 47.452 296.700 C 48.509 294.885,49.809 292.590,50.341 291.600 C 50.873 290.610,51.644 289.322,52.054 288.738 C 52.464 288.154,52.800 287.577,52.800 287.456 C 52.800 287.334,53.366 286.282,54.059 285.118 C 54.751 283.953,55.858 282.010,56.520 280.800 C 57.181 279.590,58.055 278.122,58.461 277.538 C 58.867 276.954,59.200 276.377,59.200 276.256 C 59.200 276.134,59.766 275.082,60.459 273.918 C 61.151 272.753,62.258 270.810,62.920 269.600 C 63.581 268.390,64.455 266.922,64.861 266.338 C 65.267 265.754,65.600 265.177,65.600 265.056 C 65.600 264.934,66.166 263.882,66.859 262.718 C 67.551 261.553,68.658 259.610,69.320 258.400 C 69.981 257.190,70.855 255.722,71.261 255.138 C 71.667 254.554,72.000 253.977,72.000 253.856 C 72.000 253.734,72.566 252.682,73.259 251.518 C 73.951 250.353,75.058 248.410,75.720 247.200 C 76.381 245.990,77.255 244.522,77.661 243.938 C 78.067 243.354,78.400 242.766,78.400 242.631 C 78.400 242.496,79.120 241.200,80.000 239.752 C 80.880 238.303,81.600 237.055,81.600 236.977 C 81.600 236.899,82.166 235.882,82.859 234.718 C 83.551 233.553,84.658 231.610,85.320 230.400 C 85.981 229.190,86.855 227.722,87.261 227.138 C 87.667 226.554,88.000 225.977,88.000 225.856 C 88.000 225.734,88.566 224.682,89.259 223.518 C 89.951 222.353,91.058 220.410,91.720 219.200 C 92.381 217.990,93.255 216.522,93.661 215.938 C 94.067 215.354,94.400 214.777,94.400 214.656 C 94.400 214.534,94.966 213.482,95.659 212.318 C 96.351 211.153,97.458 209.210,98.120 208.000 C 98.781 206.790,99.655 205.322,100.061 204.738 C 100.467 204.154,100.800 203.577,100.800 203.456 C 100.800 203.334,101.366 202.282,102.059 201.118 C 102.751 199.953,103.858 198.010,104.520 196.800 C 105.181 195.590,106.055 194.122,106.461 193.538 C 106.867 192.954,107.200 192.377,107.200 192.256 C 107.200 192.134,107.766 191.082,108.459 189.918 C 109.151 188.753,110.258 186.810,110.920 185.600 C 111.581 184.390,112.455 182.922,112.861 182.338 C 113.267 181.754,113.600 181.177,113.600 181.056 C 113.600 180.934,114.166 179.882,114.859 178.718 C 115.551 177.553,116.658 175.610,117.320 174.400 C 117.981 173.190,118.855 171.722,119.261 171.138 C 119.667 170.554,120.000 169.977,120.000 169.856 C 120.000 169.734,120.566 168.682,121.259 167.518 C 121.951 166.353,123.058 164.410,123.720 163.200 C 124.381 161.990,125.255 160.522,125.661 159.938 C 126.067 159.354,126.400 158.777,126.400 158.656 C 126.400 158.534,126.966 157.482,127.659 156.318 C 128.351 155.153,129.458 153.210,130.120 152.000 C 130.781 150.790,131.655 149.322,132.061 148.738 C 132.467 148.154,132.800 147.577,132.800 147.456 C 132.800 147.334,133.366 146.282,134.059 145.118 C 134.751 143.953,135.858 142.010,136.520 140.800 C 137.181 139.590,138.055 138.122,138.461 137.538 C 138.867 136.954,139.200 136.377,139.200 136.256 C 139.200 136.134,139.766 135.082,140.459 133.918 C 141.151 132.753,142.258 130.810,142.920 129.600 C 143.581 128.390,144.455 126.922,144.861 126.338 C 145.267 125.754,145.600 125.177,145.600 125.056 C 145.600 124.934,146.165 123.882,146.856 122.718 C 148.038 120.724,148.420 120.065,150.400 116.600 C 150.840 115.830,151.560 114.570,152.000 113.800 C 152.440 113.030,153.160 111.770,153.600 111.000 C 154.040 110.230,154.760 108.970,155.200 108.200 C 155.640 107.430,156.360 106.170,156.800 105.400 C 157.240 104.630,157.960 103.370,158.400 102.600 C 158.840 101.830,159.587 100.525,160.059 99.700 C 160.531 98.875,161.443 97.251,162.085 96.091 L 163.252 93.981 158.291 85.312 C 155.563 80.544,153.149 76.583,152.929 76.510 C 152.708 76.436,123.879 126.511,88.864 187.788 M251.724 76.899 C 251.546 77.173,248.676 82.154,245.346 87.968 L 239.292 98.539 240.046 99.869 C 240.461 100.601,241.160 101.830,241.600 102.600 C 242.040 103.370,242.760 104.630,243.200 105.400 C 243.640 106.170,244.360 107.430,244.800 108.200 C 245.240 108.970,245.960 110.230,246.400 111.000 C 246.840 111.770,247.560 113.030,248.000 113.800 C 248.440 114.570,249.160 115.830,249.600 116.600 C 250.040 117.370,250.760 118.630,251.200 119.400 C 251.640 120.170,252.360 121.430,252.800 122.200 C 253.240 122.970,253.960 124.230,254.400 125.000 C 254.840 125.770,255.560 127.030,256.000 127.800 C 256.440 128.570,257.160 129.830,257.600 130.600 C 258.040 131.370,258.760 132.630,259.200 133.400 C 259.640 134.170,260.360 135.430,260.800 136.200 C 261.240 136.970,261.960 138.230,262.400 139.000 C 262.840 139.770,263.560 141.030,264.000 141.800 C 264.440 142.570,265.160 143.830,265.600 144.600 C 266.040 145.370,266.760 146.630,267.200 147.400 C 267.640 148.170,268.360 149.430,268.800 150.200 C 269.240 150.970,269.960 152.230,270.400 153.000 C 270.840 153.770,271.560 155.030,272.000 155.800 C 272.440 156.570,273.160 157.830,273.600 158.600 C 274.040 159.370,274.760 160.630,275.200 161.400 C 275.640 162.170,276.360 163.430,276.800 164.200 C 277.240 164.970,277.960 166.230,278.400 167.000 C 278.840 167.770,279.560 169.030,280.000 169.800 C 280.440 170.570,281.160 171.830,281.600 172.600 C 283.580 176.065,283.962 176.724,285.144 178.718 C 285.835 179.882,286.400 180.934,286.400 181.056 C 286.400 181.177,286.733 181.754,287.139 182.338 C 287.545 182.922,288.419 184.390,289.080 185.600 C 289.742 186.810,290.849 188.753,291.541 189.918 C 292.234 191.082,292.800 192.134,292.800 192.256 C 292.800 192.377,293.133 192.954,293.539 193.538 C 293.945 194.122,294.819 195.590,295.480 196.800 C 296.142 198.010,297.249 199.953,297.941 201.118 C 298.634 202.282,299.200 203.334,299.200 203.456 C 299.200 203.577,299.533 204.154,299.939 204.738 C 300.345 205.322,301.219 206.790,301.880 208.000 C 302.542 209.210,303.649 211.153,304.341 212.318 C 305.034 213.482,305.600 214.534,305.600 214.656 C 305.600 214.777,305.933 215.354,306.339 215.938 C 306.745 216.522,307.619 217.990,308.280 219.200 C 308.942 220.410,310.049 222.353,310.741 223.518 C 311.434 224.682,312.000 225.734,312.000 225.856 C 312.000 225.977,312.333 226.554,312.739 227.138 C 313.145 227.722,314.019 229.190,314.680 230.400 C 315.342 231.610,316.449 233.553,317.141 234.718 C 317.834 235.882,318.400 236.899,318.400 236.977 C 318.400 237.055,319.120 238.303,320.000 239.752 C 320.880 241.200,321.600 242.496,321.600 242.631 C 321.600 242.766,321.933 243.354,322.339 243.938 C 322.745 244.522,323.619 245.990,324.280 247.200 C 324.942 248.410,326.049 250.353,326.741 251.518 C 327.434 252.682,328.000 253.734,328.000 253.856 C 328.000 253.977,328.333 254.554,328.739 255.138 C 329.145 255.722,330.019 257.190,330.680 258.400 C 331.342 259.610,332.449 261.553,333.141 262.718 C 333.834 263.882,334.400 264.934,334.400 265.056 C 334.400 265.177,334.733 265.754,335.139 266.338 C 335.545 266.922,336.419 268.390,337.080 269.600 C 337.742 270.810,338.849 272.753,339.541 273.918 C 340.234 275.082,340.800 276.134,340.800 276.256 C 340.800 276.377,341.133 276.954,341.539 277.538 C 341.945 278.122,342.819 279.590,343.480 280.800 C 344.142 282.010,345.249 283.953,345.941 285.118 C 346.634 286.282,347.200 287.334,347.200 287.456 C 347.200 287.577,347.533 288.154,347.939 288.738 C 348.345 289.322,349.219 290.790,349.880 292.000 C 350.542 293.210,351.652 295.190,352.349 296.400 C 353.045 297.610,353.766 298.870,353.951 299.200 C 354.433 300.061,380.135 300.321,379.930 299.463 C 379.710 298.535,252.648 76.400,252.338 76.400 C 252.178 76.400,251.902 76.624,251.724 76.899 M45.462 346.331 C 45.098 346.734,44.800 347.165,44.800 347.291 C 44.800 347.416,44.080 348.703,43.200 350.152 C 42.320 351.600,41.600 352.896,41.600 353.031 C 41.600 353.166,41.267 353.754,40.861 354.338 C 40.455 354.922,39.581 356.390,38.920 357.600 C 38.258 358.810,37.151 360.753,36.459 361.918 C 35.766 363.082,35.200 364.095,35.200 364.169 C 35.200 364.243,34.570 365.349,33.800 366.628 C 33.030 367.907,32.400 369.189,32.400 369.476 C 32.400 369.907,62.169 370.000,200.000 370.000 C 337.831 370.000,367.600 369.907,367.600 369.476 C 367.600 369.189,366.970 367.907,366.200 366.628 C 365.430 365.349,364.800 364.232,364.800 364.144 C 364.800 364.057,364.080 362.800,363.200 361.352 C 362.320 359.903,361.600 358.655,361.600 358.577 C 361.600 358.499,361.034 357.482,360.341 356.318 C 359.649 355.153,358.542 353.210,357.880 352.000 C 357.219 350.790,356.345 349.322,355.939 348.738 C 355.533 348.154,355.200 347.507,355.200 347.300 C 355.200 347.093,354.871 346.626,354.469 346.262 C 353.271 345.178,46.443 345.247,45.462 346.331 " stroke="none" fill="#3d3c44" fill-rule="evenodd"></path><path id="path2" d="M0.000 200.000 L 0.000 400.000 200.000 400.000 L 400.000 400.000 400.000 200.000 L 400.000 0.000 200.000 0.000 L 0.000 0.000 0.000 200.000 M201.505 32.416 C 202.059 33.397,202.848 34.785,203.257 35.500 C 203.665 36.215,204.360 37.430,204.800 38.200 C 205.240 38.970,205.960 40.230,206.400 41.000 C 206.840 41.770,207.560 43.030,208.000 43.800 C 208.440 44.570,209.160 45.830,209.600 46.600 C 210.040 47.370,210.760 48.630,211.200 49.400 C 211.640 50.170,212.360 51.430,212.800 52.200 C 213.240 52.970,213.960 54.230,214.400 55.000 C 214.840 55.770,215.560 57.030,216.000 57.800 C 216.440 58.570,217.160 59.830,217.600 60.600 C 218.040 61.370,218.760 62.630,219.200 63.400 C 219.640 64.170,220.360 65.430,220.800 66.200 C 221.240 66.970,221.960 68.230,222.400 69.000 C 222.840 69.770,223.560 71.030,224.000 71.800 C 224.440 72.570,225.160 73.830,225.600 74.600 C 226.040 75.370,226.760 76.630,227.200 77.400 C 227.640 78.170,228.360 79.430,228.800 80.200 C 229.240 80.970,229.960 82.230,230.400 83.000 C 230.840 83.770,231.560 85.030,232.000 85.800 C 232.440 86.570,233.160 87.830,233.600 88.600 C 234.040 89.370,234.735 90.585,235.143 91.300 C 235.552 92.015,236.370 93.410,236.961 94.400 C 237.552 95.390,238.138 96.515,238.264 96.900 C 238.699 98.229,239.809 97.645,240.925 95.500 C 241.526 94.345,242.489 92.590,243.065 91.600 C 244.052 89.905,244.423 89.259,246.400 85.800 C 246.840 85.030,247.560 83.770,248.000 83.000 C 250.021 79.463,250.558 78.522,251.176 77.427 C 252.115 75.765,252.531 75.777,253.460 77.493 C 253.909 78.322,254.665 79.675,255.138 80.500 C 255.612 81.325,256.360 82.630,256.800 83.400 C 257.240 84.170,257.960 85.430,258.400 86.200 C 258.840 86.970,259.560 88.230,260.000 89.000 C 260.440 89.770,261.160 91.030,261.600 91.800 C 262.040 92.570,262.760 93.830,263.200 94.600 C 263.640 95.370,264.360 96.630,264.800 97.400 C 265.240 98.170,265.960 99.430,266.400 100.200 C 266.840 100.970,267.560 102.230,268.000 103.000 C 268.440 103.770,269.187 105.075,269.659 105.900 C 270.131 106.725,271.059 108.390,271.720 109.600 C 272.381 110.810,273.255 112.278,273.661 112.862 C 274.067 113.446,274.400 114.023,274.400 114.144 C 274.400 114.266,274.966 115.318,275.659 116.482 C 276.351 117.647,277.458 119.590,278.120 120.800 C 278.781 122.010,279.655 123.478,280.061 124.062 C 280.467 124.646,280.800 125.223,280.800 125.344 C 280.800 125.466,281.366 126.518,282.059 127.682 C 282.751 128.847,283.858 130.790,284.520 132.000 C 285.181 133.210,286.055 134.678,286.461 135.262 C 286.867 135.846,287.200 136.423,287.200 136.544 C 287.200 136.666,287.766 137.718,288.459 138.882 C 289.151 140.047,290.258 141.990,290.920 143.200 C 291.581 144.410,292.455 145.878,292.861 146.462 C 293.267 147.046,293.600 147.623,293.600 147.744 C 293.600 147.866,294.166 148.918,294.859 150.082 C 295.551 151.247,296.658 153.190,297.320 154.400 C 297.981 155.610,298.855 157.078,299.261 157.662 C 299.667 158.246,300.000 158.823,300.000 158.944 C 300.000 159.066,300.566 160.118,301.259 161.282 C 301.951 162.447,303.058 164.390,303.720 165.600 C 304.381 166.810,305.255 168.278,305.661 168.862 C 306.067 169.446,306.400 170.034,306.400 170.169 C 306.400 170.304,307.120 171.600,308.000 173.048 C 308.880 174.497,309.600 175.745,309.600 175.823 C 309.600 175.901,310.166 176.918,310.859 178.082 C 311.551 179.247,312.658 181.190,313.320 182.400 C 313.981 183.610,314.855 185.078,315.261 185.662 C 315.667 186.246,316.000 186.823,316.000 186.944 C 316.000 187.066,316.566 188.118,317.259 189.282 C 317.951 190.447,319.058 192.390,319.720 193.600 C 320.381 194.810,321.255 196.278,321.661 196.862 C 322.067 197.446,322.400 198.023,322.400 198.144 C 322.400 198.266,322.966 199.318,323.659 200.482 C 324.351 201.647,325.458 203.590,326.120 204.800 C 326.781 206.010,327.655 207.478,328.061 208.062 C 328.467 208.646,328.800 209.223,328.800 209.344 C 328.800 209.466,329.366 210.518,330.059 211.682 C 330.751 212.847,331.858 214.790,332.520 216.000 C 333.181 217.210,334.055 218.678,334.461 219.262 C 334.867 219.846,335.200 220.423,335.200 220.544 C 335.200 220.666,335.766 221.718,336.459 222.882 C 337.151 224.047,338.258 225.990,338.920 227.200 C 339.581 228.410,340.455 229.878,340.861 230.462 C 341.267 231.046,341.600 231.623,341.600 231.744 C 341.600 231.866,342.166 232.918,342.859 234.082 C 343.551 235.247,344.658 237.190,345.320 238.400 C 345.981 239.610,346.855 241.078,347.261 241.662 C 347.667 242.246,348.000 242.823,348.000 242.944 C 348.000 243.066,348.565 244.118,349.256 245.282 C 349.947 246.447,350.965 248.210,351.518 249.200 C 352.071 250.190,358.644 261.710,366.124 274.800 C 373.604 287.890,379.807 298.915,379.908 299.300 C 380.081 299.955,379.325 300.000,368.079 300.000 C 361.472 300.000,355.780 300.109,355.432 300.243 C 354.768 300.498,355.447 301.992,358.738 307.518 C 359.432 308.682,360.000 309.734,360.000 309.856 C 360.000 309.977,360.333 310.554,360.739 311.138 C 361.145 311.722,362.019 313.190,362.680 314.400 C 363.342 315.610,364.449 317.553,365.141 318.718 C 365.834 319.882,366.400 320.934,366.400 321.056 C 366.400 321.177,366.733 321.754,367.139 322.338 C 367.545 322.922,368.419 324.390,369.080 325.600 C 369.742 326.810,370.849 328.753,371.541 329.918 C 372.234 331.082,372.800 332.099,372.800 332.177 C 372.800 332.255,373.520 333.503,374.400 334.952 C 375.280 336.400,376.000 337.696,376.000 337.831 C 376.000 337.966,376.333 338.554,376.739 339.138 C 377.777 340.629,380.000 344.775,380.000 345.219 C 380.000 345.435,374.807 345.633,367.500 345.694 C 356.018 345.791,355.009 345.855,355.112 346.476 C 355.174 346.848,358.085 352.154,361.580 358.266 C 365.076 364.378,367.850 369.519,367.745 369.689 C 367.494 370.096,32.506 370.096,32.255 369.689 C 32.150 369.519,34.924 364.378,38.420 358.266 C 41.915 352.154,44.826 346.848,44.888 346.476 C 44.991 345.855,43.982 345.791,32.500 345.694 C 23.651 345.619,20.000 345.459,20.000 345.143 C 20.000 344.899,25.597 334.905,32.437 322.935 C 39.605 310.393,44.779 300.923,44.650 300.586 C 44.461 300.093,42.859 300.000,34.613 300.000 C 29.216 300.000,24.800 299.915,24.800 299.812 C 24.800 299.604,25.654 298.070,27.544 294.882 C 28.235 293.718,28.800 292.666,28.800 292.544 C 28.800 292.423,29.133 291.846,29.539 291.262 C 29.945 290.678,30.819 289.210,31.480 288.000 C 32.142 286.790,33.249 284.847,33.941 283.682 C 34.634 282.518,35.200 281.466,35.200 281.344 C 35.200 281.223,35.533 280.646,35.939 280.062 C 36.345 279.478,37.219 278.010,37.880 276.800 C 38.542 275.590,39.649 273.647,40.341 272.482 C 41.034 271.318,41.600 270.266,41.600 270.144 C 41.600 270.023,41.933 269.446,42.339 268.862 C 42.745 268.278,43.619 266.810,44.280 265.600 C 44.942 264.390,46.049 262.447,46.741 261.282 C 47.434 260.118,48.000 259.066,48.000 258.944 C 48.000 258.823,48.333 258.246,48.739 257.662 C 49.145 257.078,50.019 255.610,50.680 254.400 C 51.342 253.190,52.449 251.247,53.141 250.082 C 53.834 248.918,54.400 247.866,54.400 247.744 C 54.400 247.623,54.733 247.046,55.139 246.462 C 55.545 245.878,56.419 244.410,57.080 243.200 C 57.742 241.990,58.849 240.047,59.541 238.882 C 60.234 237.718,60.800 236.666,60.800 236.544 C 60.800 236.423,61.133 235.846,61.539 235.262 C 61.945 234.678,62.819 233.210,63.480 232.000 C 64.142 230.790,65.249 228.847,65.941 227.682 C 66.634 226.518,67.200 225.466,67.200 225.344 C 67.200 225.223,67.533 224.646,67.939 224.062 C 68.345 223.478,69.219 222.010,69.880 220.800 C 70.542 219.590,71.649 217.647,72.341 216.482 C 73.034 215.318,73.600 214.266,73.600 214.144 C 73.600 214.023,73.933 213.446,74.339 212.862 C 74.745 212.278,75.619 210.810,76.280 209.600 C 76.942 208.390,78.049 206.447,78.741 205.282 C 79.434 204.118,80.000 203.066,80.000 202.944 C 80.000 202.823,80.333 202.246,80.739 201.662 C 81.145 201.078,82.019 199.610,82.680 198.400 C 83.342 197.190,84.449 195.247,85.141 194.082 C 85.834 192.918,86.400 191.866,86.400 191.744 C 86.400 191.623,86.733 191.046,87.139 190.462 C 87.545 189.878,88.419 188.410,89.080 187.200 C 89.742 185.990,90.849 184.047,91.541 182.882 C 92.234 181.718,92.800 180.701,92.800 180.623 C 92.800 180.545,93.520 179.297,94.400 177.848 C 95.280 176.400,96.000 175.104,96.000 174.969 C 96.000 174.834,96.333 174.246,96.739 173.662 C 97.145 173.078,98.019 171.610,98.680 170.400 C 99.342 169.190,100.449 167.247,101.141 166.082 C 101.834 164.918,102.400 163.866,102.400 163.744 C 102.400 163.623,102.733 163.046,103.139 162.462 C 103.545 161.878,104.419 160.410,105.080 159.200 C 105.741 157.990,106.669 156.325,107.141 155.500 C 107.613 154.675,108.360 153.370,108.800 152.600 C 109.240 151.830,109.960 150.570,110.400 149.800 C 110.840 149.030,111.560 147.770,112.000 147.000 C 112.440 146.230,113.160 144.970,113.600 144.200 C 114.040 143.430,114.760 142.170,115.200 141.400 C 115.640 140.630,116.360 139.370,116.800 138.600 C 117.240 137.830,117.960 136.570,118.400 135.800 C 118.840 135.030,119.560 133.770,120.000 133.000 C 120.440 132.230,121.160 130.970,121.600 130.200 C 122.040 129.430,122.760 128.170,123.200 127.400 C 123.640 126.630,124.360 125.370,124.800 124.600 C 125.240 123.830,125.960 122.570,126.400 121.800 C 126.840 121.030,127.560 119.770,128.000 119.000 C 128.440 118.230,129.160 116.970,129.600 116.200 C 130.040 115.430,130.760 114.170,131.200 113.400 C 131.640 112.630,132.360 111.370,132.800 110.600 C 133.240 109.830,133.960 108.570,134.400 107.800 C 134.840 107.030,135.560 105.770,136.000 105.000 C 136.440 104.230,137.160 102.970,137.600 102.200 C 138.040 101.430,138.760 100.170,139.200 99.400 C 139.640 98.630,140.360 97.370,140.800 96.600 C 141.240 95.830,141.960 94.570,142.400 93.800 C 142.840 93.030,143.560 91.770,144.000 91.000 C 144.440 90.230,145.160 88.970,145.600 88.200 C 146.040 87.430,146.760 86.170,147.200 85.400 C 147.640 84.630,148.360 83.370,148.800 82.600 C 149.682 81.056,150.835 79.025,151.662 77.555 C 152.490 76.086,152.939 75.943,153.691 76.910 C 154.071 77.400,154.386 77.938,154.391 78.107 C 154.396 78.276,155.120 79.600,156.000 81.048 C 156.880 82.497,157.600 83.745,157.600 83.823 C 157.600 83.901,158.167 84.918,158.860 86.082 C 159.554 87.247,160.712 89.280,161.433 90.600 C 163.018 93.497,163.585 93.693,164.657 91.714 C 165.108 90.881,165.865 89.525,166.338 88.700 C 166.812 87.875,167.560 86.570,168.000 85.800 C 168.440 85.030,169.160 83.770,169.600 83.000 C 170.040 82.230,170.760 80.970,171.200 80.200 C 171.640 79.430,172.360 78.170,172.800 77.400 C 173.240 76.630,173.960 75.370,174.400 74.600 C 174.840 73.830,175.560 72.570,176.000 71.800 C 176.440 71.030,177.160 69.770,177.600 69.000 C 178.040 68.230,178.760 66.970,179.200 66.200 C 179.640 65.430,180.360 64.170,180.800 63.400 C 181.240 62.630,181.960 61.370,182.400 60.600 C 182.840 59.830,183.560 58.570,184.000 57.800 C 184.440 57.030,185.160 55.770,185.600 55.000 C 186.040 54.230,186.760 52.970,187.200 52.200 C 187.640 51.430,188.360 50.170,188.800 49.400 C 189.240 48.630,189.960 47.370,190.400 46.600 C 190.840 45.830,191.560 44.570,192.000 43.800 C 192.440 43.030,193.160 41.770,193.600 41.000 C 194.040 40.230,194.760 38.970,195.200 38.200 C 195.640 37.430,196.360 36.170,196.800 35.400 C 197.240 34.630,197.980 33.325,198.444 32.500 C 198.908 31.675,199.375 30.855,199.481 30.679 C 199.844 30.073,200.497 30.634,201.505 32.416 M212.888 130.100 C 212.663 130.375,212.277 131.352,212.032 132.270 C 211.482 134.328,208.958 137.710,205.228 141.389 C 200.359 146.191,201.179 146.604,208.529 143.054 C 211.428 141.654,214.520 140.178,215.400 139.775 C 218.313 138.441,222.400 135.848,222.400 135.333 C 222.400 133.196,214.095 128.627,212.888 130.100 M179.900 136.653 C 177.667 137.310,185.081 146.417,187.825 146.387 C 192.093 146.341,192.176 140.436,187.946 137.766 C 186.483 136.843,181.566 136.162,179.900 136.653 M211.400 146.828 C 205.088 148.198,199.656 149.227,196.800 149.593 C 195.370 149.776,191.230 150.295,187.600 150.746 C 179.407 151.763,178.400 151.969,178.400 152.623 C 178.400 153.527,183.733 154.389,189.400 154.399 C 194.550 154.409,196.012 155.376,195.995 158.760 C 195.979 161.785,195.997 161.775,188.939 162.823 C 183.034 163.701,182.301 163.898,182.513 164.549 C 182.906 165.759,185.013 166.200,190.400 166.200 L 195.800 166.200 195.916 169.468 C 196.051 173.292,196.399 173.012,190.775 173.603 C 188.699 173.822,185.470 174.199,183.600 174.441 C 181.730 174.683,179.300 174.998,178.200 175.141 C 176.428 175.370,176.200 175.509,176.200 176.360 C 176.200 178.469,182.246 178.757,192.113 177.117 C 195.888 176.490,195.800 176.319,195.800 184.319 L 195.800 191.000 193.400 191.298 C 190.149 191.701,182.307 192.330,174.800 192.789 C 171.390 192.997,166.440 193.344,163.800 193.560 C 161.160 193.775,157.423 194.079,155.495 194.235 C 150.214 194.663,149.435 195.824,153.038 197.899 C 156.271 199.761,158.437 199.850,165.800 198.423 C 176.276 196.392,179.564 195.941,195.200 194.385 C 209.571 192.956,223.852 192.660,241.611 193.426 C 249.299 193.757,250.455 192.286,245.346 188.673 C 242.210 186.454,239.576 185.953,235.320 186.767 C 234.264 186.969,231.240 187.342,228.600 187.596 C 225.960 187.850,222.630 188.218,221.200 188.413 C 212.249 189.635,212.298 189.676,217.091 184.990 C 221.018 181.151,221.058 180.897,217.994 179.354 C 214.590 177.640,212.003 177.722,211.995 179.543 C 211.982 182.438,209.427 188.776,207.863 189.789 C 207.363 190.113,205.737 190.388,204.000 190.443 L 201.000 190.537 200.870 187.769 C 200.425 178.329,201.297 176.010,205.300 175.983 C 208.479 175.962,218.369 174.981,219.322 174.592 C 220.525 174.101,220.064 171.938,218.600 171.203 C 216.809 170.303,209.772 170.598,203.696 171.828 C 201.772 172.217,201.200 171.533,201.200 168.840 C 201.200 166.229,201.975 164.800,203.392 164.800 C 203.913 164.800,205.208 164.629,206.269 164.420 C 207.331 164.211,209.280 163.837,210.600 163.589 C 215.634 162.641,216.731 161.833,214.917 160.406 C 213.427 159.234,212.280 159.043,209.681 159.535 C 203.915 160.625,201.941 160.272,202.276 158.210 C 202.437 157.215,202.257 156.424,201.626 155.355 C 200.561 153.548,200.766 153.373,204.358 153.024 C 205.811 152.883,207.810 152.599,208.800 152.393 C 209.790 152.186,211.950 151.754,213.600 151.431 C 219.567 150.262,221.600 149.441,221.600 148.196 C 221.600 146.694,215.676 145.899,211.400 146.828 M178.000 182.700 C 178.001 185.170,181.690 191.200,183.200 191.200 C 185.302 191.200,186.523 187.822,185.329 185.307 C 183.872 182.236,178.000 180.147,178.000 182.700 M210.770 201.574 C 209.764 201.957,207.784 202.402,206.370 202.561 C 204.957 202.721,202.630 203.013,201.200 203.211 C 196.014 203.927,185.074 204.356,182.400 203.948 C 180.970 203.729,178.945 203.454,177.900 203.337 L 176.000 203.123 176.000 204.349 C 176.000 205.024,176.540 206.639,177.200 207.938 C 177.860 209.236,178.400 210.583,178.400 210.931 C 178.400 211.278,178.563 211.976,178.762 212.481 C 178.961 212.987,179.335 214.480,179.594 215.800 C 181.614 226.102,182.252 228.215,183.485 228.688 C 184.518 229.085,185.388 228.211,185.600 226.563 C 185.846 224.647,186.015 224.612,198.000 224.009 C 217.191 223.044,219.661 222.494,217.629 219.641 C 215.672 216.893,217.019 213.940,222.100 209.838 C 225.656 206.966,223.878 204.149,216.681 201.251 C 215.134 200.627,212.937 200.748,210.770 201.574 M210.874 207.239 C 212.488 208.103,210.530 216.876,208.484 217.947 C 206.961 218.743,187.464 221.141,186.262 220.679 C 185.907 220.543,185.607 219.705,185.491 218.528 C 185.387 217.468,185.085 214.898,184.820 212.818 C 184.244 208.301,184.284 208.244,188.315 207.783 C 195.667 206.944,209.690 206.606,210.874 207.239 M116.891 267.300 L 117.000 274.200 133.900 274.304 C 143.195 274.362,150.800 274.542,150.800 274.706 C 150.800 274.990,149.781 276.111,143.442 282.800 C 141.878 284.450,137.450 289.130,133.602 293.200 C 129.755 297.270,125.147 302.130,123.363 304.000 C 121.580 305.870,119.373 308.209,118.460 309.198 L 116.800 310.996 116.800 317.901 L 116.800 324.806 143.700 324.703 L 170.600 324.600 170.600 318.000 L 170.600 311.400 153.500 311.296 C 141.592 311.223,136.400 311.060,136.400 310.760 C 136.400 310.522,138.056 308.589,140.080 306.464 C 144.570 301.750,150.326 295.687,154.381 291.400 C 156.046 289.640,160.286 285.171,163.804 281.468 C 167.322 277.765,170.317 274.345,170.460 273.868 C 170.795 272.751,170.877 261.866,170.557 261.033 C 170.339 260.464,167.586 260.400,143.548 260.400 L 116.781 260.400 116.891 267.300 M176.597 261.700 C 176.478 262.195,176.429 276.550,176.490 293.600 L 176.600 324.600 198.800 324.600 L 221.000 324.600 221.000 318.000 L 221.000 311.400 206.600 311.200 L 192.200 311.000 192.089 305.506 L 191.977 300.012 204.289 299.906 L 216.600 299.800 216.600 293.000 L 216.600 286.200 204.400 286.000 L 192.200 285.800 192.200 280.400 L 192.200 275.000 206.600 274.800 L 221.000 274.600 221.115 268.600 C 221.178 265.300,221.129 262.195,221.007 261.700 L 220.785 260.800 198.800 260.800 L 176.815 260.800 176.597 261.700 M269.075 261.058 C 268.924 261.209,268.800 268.413,268.800 277.067 C 268.800 295.531,269.448 294.215,262.877 289.100 C 260.263 287.065,257.532 284.950,256.808 284.400 C 256.084 283.850,253.740 282.050,251.600 280.400 C 249.460 278.750,247.117 276.950,246.394 276.400 C 245.671 275.850,242.870 273.690,240.169 271.600 C 229.483 263.330,227.168 261.600,226.792 261.600 C 226.539 261.600,226.400 272.855,226.400 293.200 L 226.400 324.800 234.000 324.800 L 241.600 324.800 241.600 309.600 C 241.600 297.702,241.709 294.402,242.100 294.408 C 242.527 294.415,244.358 295.682,249.600 299.597 C 250.812 300.502,260.188 307.394,266.100 311.724 C 267.695 312.893,271.160 315.446,273.800 317.398 C 276.440 319.351,279.653 321.725,280.940 322.674 C 282.226 323.623,283.443 324.400,283.642 324.400 C 283.857 324.400,283.963 311.473,283.902 292.700 L 283.800 261.000 276.575 260.891 C 272.602 260.831,269.227 260.906,269.075 261.058 " stroke="none" fill="#fbfbfb" fill-rule="evenodd"></path></g></svg>