<svg id="svg" version="1.1" xmlns="http://www.w3.org/2000/svg" xmlns:xlink="http://www.w3.org/1999/xlink" width="400" height="400" viewBox="0, 0, 400,400"><g id="svgg"><path id="path0" d="M44.870 53.611 C 44.982 54.118,43.260 54.215,32.500 54.306 C 23.651 54.381,20.000 54.541,20.000 54.857 C 20.000 55.101,25.597 65.095,32.437 77.065 C 39.605 89.607,44.779 99.077,44.650 99.414 C 44.519 99.755,44.657 100.000,44.981 100.000 C 45.459 100.000,49.110 105.961,53.312 113.600 C 53.978 114.810,54.855 116.278,55.261 116.862 C 55.667 117.446,56.000 118.023,56.000 118.144 C 56.000 118.266,56.566 119.318,57.259 120.482 C 57.951 121.647,59.058 123.590,59.720 124.800 C 60.381 126.010,61.255 127.478,61.661 128.062 C 62.067 128.646,62.400 129.223,62.400 129.344 C 62.400 129.466,62.966 130.518,63.659 131.682 C 64.351 132.847,65.458 134.790,66.120 136.000 C 66.781 137.210,67.655 138.678,68.061 139.262 C 68.467 139.846,68.800 140.423,68.800 140.544 C 68.800 140.666,69.366 141.718,70.059 142.882 C 70.751 144.047,71.858 145.990,72.520 147.200 C 73.181 148.410,74.055 149.878,74.461 150.462 C 74.867 151.046,75.200 151.623,75.200 151.744 C 75.200 151.866,75.766 152.918,76.459 154.082 C 77.151 155.247,78.258 157.190,78.920 158.400 C 79.581 159.610,80.455 161.078,80.861 161.662 C 81.267 162.246,81.600 162.823,81.600 162.944 C 81.600 163.066,82.166 164.118,82.859 165.282 C 83.551 166.447,84.658 168.390,85.320 169.600 C 85.981 170.810,86.855 172.278,87.261 172.862 C 87.667 173.446,88.000 174.023,88.000 174.144 C 88.000 174.266,88.566 175.318,89.259 176.482 C 89.951 177.647,91.058 179.590,91.720 180.800 C 92.381 182.010,93.255 183.478,93.661 184.062 C 94.067 184.646,94.400 185.223,94.400 185.344 C 94.400 185.466,94.966 186.518,95.659 187.682 C 96.351 188.847,97.458 190.790,98.120 192.000 C 98.781 193.210,99.655 194.678,100.061 195.262 C 100.467 195.846,100.800 196.423,100.800 196.544 C 100.800 196.666,101.366 197.718,102.059 198.882 C 102.751 200.047,103.858 201.990,104.520 203.200 C 105.181 204.410,106.055 205.878,106.461 206.462 C 106.867 207.046,107.200 207.623,107.200 207.744 C 107.200 207.866,107.766 208.918,108.459 210.082 C 109.151 211.247,110.258 213.190,110.920 214.400 C 111.581 215.610,112.455 217.078,112.861 217.662 C 113.267 218.246,113.600 218.834,113.600 218.969 C 113.600 219.104,114.320 220.400,115.200 221.848 C 116.080 223.297,116.800 224.545,116.800 224.623 C 116.800 224.701,117.366 225.718,118.059 226.882 C 118.751 228.047,119.858 229.990,120.520 231.200 C 121.181 232.410,122.055 233.878,122.461 234.462 C 122.867 235.046,123.200 235.623,123.200 235.744 C 123.200 235.866,123.766 236.918,124.459 238.082 C 125.151 239.247,126.258 241.190,126.920 242.400 C 127.581 243.610,128.455 245.078,128.861 245.662 C 129.267 246.246,129.600 246.823,129.600 246.944 C 129.600 247.066,130.166 248.118,130.859 249.282 C 131.551 250.447,132.658 252.390,133.320 253.600 C 133.981 254.810,134.855 256.278,135.261 256.862 C 135.667 257.446,136.000 258.023,136.000 258.144 C 136.000 258.266,136.566 259.318,137.259 260.482 C 137.951 261.647,139.058 263.590,139.720 264.800 C 140.381 266.010,141.255 267.478,141.661 268.062 C 142.067 268.646,142.400 269.223,142.400 269.344 C 142.400 269.466,142.966 270.518,143.659 271.682 C 144.351 272.847,145.458 274.790,146.120 276.000 C 146.781 277.210,147.655 278.678,148.061 279.262 C 148.467 279.846,148.800 280.423,148.800 280.544 C 148.800 280.666,149.366 281.718,150.059 282.882 C 150.751 284.047,151.858 285.990,152.520 287.200 C 153.181 288.410,154.055 289.878,154.461 290.462 C 154.867 291.046,155.200 291.623,155.200 291.744 C 155.200 291.866,155.768 292.918,156.462 294.082 C 158.848 298.089,160.400 301.112,160.400 301.755 C 160.400 302.110,160.649 302.400,160.953 302.400 C 161.258 302.400,161.610 302.715,161.736 303.100 C 161.862 303.485,162.448 304.610,163.039 305.600 C 163.630 306.590,164.448 307.985,164.857 308.700 C 165.265 309.415,165.960 310.630,166.400 311.400 C 166.840 312.170,167.560 313.430,168.000 314.200 C 168.440 314.970,169.160 316.230,169.600 317.000 C 170.040 317.770,170.760 319.030,171.200 319.800 C 171.640 320.570,172.360 321.830,172.800 322.600 C 173.240 323.370,173.960 324.630,174.400 325.400 C 174.840 326.170,175.560 327.430,176.000 328.200 C 176.440 328.970,177.160 330.230,177.600 331.000 C 178.040 331.770,178.760 333.030,179.200 333.800 C 179.640 334.570,180.360 335.830,180.800 336.600 C 181.240 337.370,181.960 338.630,182.400 339.400 C 182.840 340.170,183.560 341.430,184.000 342.200 C 184.440 342.970,185.160 344.230,185.600 345.000 C 186.040 345.770,186.760 347.030,187.200 347.800 C 187.640 348.570,188.360 349.830,188.800 350.600 C 189.240 351.370,189.960 352.630,190.400 353.400 C 190.840 354.170,191.560 355.430,192.000 356.200 C 192.440 356.970,193.160 358.230,193.600 359.000 C 194.040 359.770,194.760 361.030,195.200 361.800 C 195.640 362.570,196.335 363.785,196.743 364.500 C 197.152 365.215,197.945 366.610,198.504 367.600 C 199.064 368.590,199.737 369.400,200.000 369.400 C 200.263 369.400,200.936 368.590,201.496 367.600 C 202.055 366.610,202.848 365.215,203.257 364.500 C 203.665 363.785,204.360 362.570,204.800 361.800 C 176.387 411.523,228.295 320.684,208.000 356.200 C 208.440 355.430,209.160 354.170,209.600 353.400 C 210.040 352.630,210.760 351.370,211.200 350.600 C 211.640 349.830,212.360 348.570,212.800 347.800 C 213.240 347.030,213.960 345.770,214.400 345.000 C 214.840 344.230,215.560 342.970,216.000 342.200 C 216.440 341.430,217.160 340.170,217.600 339.400 C 218.040 338.630,218.760 337.370,219.200 336.600 C 219.640 335.830,220.360 334.570,220.800 333.800 C 221.240 333.030,221.960 331.770,222.400 331.000 C 222.840 330.230,223.560 328.970,224.000 328.200 C 214.171 345.400,240.133 299.968,227.200 322.600 C 227.640 321.830,228.360 320.570,228.800 319.800 C 229.240 319.030,229.960 317.770,230.400 317.000 C 230.840 316.230,231.560 314.970,232.000 314.200 C 232.440 313.430,233.188 312.125,233.662 311.300 C 234.135 310.475,234.889 309.125,235.336 308.300 C 235.783 307.475,236.379 306.800,236.662 306.800 C 236.948 306.800,237.076 306.541,236.950 306.214 C 236.826 305.892,237.102 305.099,237.563 304.452 C 238.023 303.806,238.400 303.152,238.400 303.000 C 238.400 302.848,238.733 302.246,239.139 301.662 C 239.545 301.078,240.419 299.610,241.080 298.400 C 241.742 297.190,242.849 295.247,243.541 294.082 C 244.234 292.918,244.800 291.866,244.800 291.744 C 244.800 291.623,245.133 291.046,245.539 290.462 C 245.945 289.878,246.819 288.410,247.480 287.200 C 248.142 285.990,249.249 284.047,249.941 282.882 C 250.634 281.718,251.200 280.666,251.200 280.544 C 251.200 280.423,251.533 279.846,251.939 279.262 C 252.345 278.678,253.219 277.210,253.880 276.000 C 254.542 274.790,255.649 272.847,256.341 271.682 C 257.034 270.518,257.600 269.466,257.600 269.344 C 257.600 269.223,257.933 268.646,258.339 268.062 C 258.745 267.478,259.619 266.010,260.280 264.800 C 260.942 263.590,262.049 261.647,262.741 260.482 C 263.434 259.318,264.000 258.266,264.000 258.144 C 264.000 258.023,264.333 257.446,264.739 256.862 C 265.145 256.278,266.019 254.810,266.680 253.600 C 267.342 252.390,268.449 250.447,269.141 249.282 C 269.834 248.118,270.400 247.066,270.400 246.944 C 270.400 246.823,270.733 246.246,271.139 245.662 C 271.545 245.078,272.419 243.610,273.080 242.400 C 273.742 241.190,274.849 239.247,275.541 238.082 C 276.234 236.918,276.800 235.866,276.800 235.744 C 276.800 235.623,277.133 235.046,277.539 234.462 C 277.945 233.878,278.819 232.410,279.480 231.200 C 280.142 229.990,281.249 228.047,281.941 226.882 C 282.634 225.718,283.200 224.666,283.200 224.544 C 283.200 224.423,283.533 223.846,283.939 223.262 C 284.345 222.678,285.219 221.210,285.880 220.000 C 286.542 218.790,287.649 216.847,288.341 215.682 C 289.034 214.518,289.600 213.466,289.600 213.344 C 289.600 213.223,289.933 212.646,290.339 212.062 C 290.745 211.478,291.619 210.010,292.280 208.800 C 292.942 207.590,294.049 205.647,294.741 204.482 C 295.434 203.318,296.000 202.266,296.000 202.144 C 296.000 202.023,296.333 201.446,296.739 200.862 C 297.145 200.278,298.019 198.810,298.680 197.600 C 299.342 196.390,300.449 194.447,301.141 193.282 C 301.834 192.118,302.400 191.066,302.400 190.944 C 302.400 190.823,302.733 190.246,303.139 189.662 C 303.545 189.078,304.419 187.610,305.080 186.400 C 305.742 185.190,306.849 183.247,307.541 182.082 C 308.234 180.918,308.800 179.866,308.800 179.744 C 308.800 179.623,309.133 179.046,309.539 178.462 C 309.945 177.878,310.819 176.410,311.480 175.200 C 312.142 173.990,313.249 172.047,313.941 170.882 C 314.634 169.718,315.200 168.666,315.200 168.544 C 315.200 168.423,315.533 167.846,315.939 167.262 C 316.345 166.678,317.219 165.210,317.880 164.000 C 318.542 162.790,319.649 160.847,320.341 159.682 C 321.034 158.518,321.600 157.466,321.600 157.344 C 321.600 157.223,321.933 156.646,322.339 156.062 C 322.745 155.478,323.619 154.010,324.280 152.800 C 324.942 151.590,326.049 149.647,326.741 148.482 C 327.434 147.318,328.000 146.266,328.000 146.144 C 328.000 146.023,328.333 145.446,328.739 144.862 C 329.145 144.278,330.019 142.810,330.680 141.600 C 331.342 140.390,332.449 138.447,333.141 137.282 C 333.834 136.118,334.400 135.066,334.400 134.944 C 334.400 134.823,334.733 134.246,335.139 133.662 C 335.545 133.078,336.419 131.610,337.080 130.400 C 337.742 129.190,338.849 127.247,339.541 126.082 C 340.234 124.918,340.800 123.901,340.800 123.823 C 340.800 123.745,341.520 122.497,342.400 121.048 C 343.280 119.600,344.000 118.304,344.000 118.169 C 344.000 118.034,344.333 117.446,344.739 116.862 C 345.145 116.278,346.019 114.810,346.680 113.600 C 347.342 112.390,348.449 110.447,349.141 109.282 C 349.834 108.118,350.400 107.066,350.400 106.944 C 350.400 106.823,350.737 106.246,351.149 105.662 C 351.562 105.078,352.404 103.630,353.021 102.444 C 353.638 101.258,354.458 100.205,354.844 100.105 C 355.230 100.003,355.452 99.680,355.339 99.384 C 355.140 98.866,356.079 96.962,358.741 92.482 C 359.434 91.318,360.000 90.301,360.000 90.223 C 360.000 90.145,360.720 88.897,361.600 87.448 C 362.480 86.000,363.200 84.704,363.200 84.569 C 363.200 84.434,363.533 83.846,363.939 83.262 C 364.345 82.678,365.219 81.210,365.880 80.000 C 366.542 78.790,367.649 76.847,368.341 75.682 C 369.034 74.518,369.600 73.466,369.600 73.344 C 369.600 73.223,369.933 72.646,370.339 72.062 C 370.745 71.478,371.619 70.010,372.280 68.800 C 372.942 67.590,374.049 65.647,374.741 64.482 C 375.434 63.318,376.000 62.310,376.000 62.244 C 376.000 62.177,376.900 60.610,378.000 58.761 C 379.100 56.913,380.000 55.178,380.000 54.906 C 380.000 54.526,377.100 54.387,367.500 54.306 C 356.740 54.215,355.018 54.118,355.130 53.611 C 355.232 53.146,355.099 53.167,354.498 53.711 C 353.316 54.781,46.684 54.781,45.502 53.711 C 44.901 53.167,44.768 53.146,44.870 53.611 M139.906 89.300 C 139.964 96.065,140.145 101.600,140.308 101.600 C 140.471 101.600,146.183 96.020,153.000 89.200 L 165.395 76.800 175.898 76.800 C 183.891 76.800,186.400 76.917,186.400 77.288 C 186.400 77.556,180.184 83.879,172.586 91.340 C 158.048 105.616,157.695 106.006,158.501 106.896 C 158.775 107.199,160.894 109.417,163.208 111.824 C 167.026 115.794,180.433 129.819,187.368 137.096 C 190.719 140.612,190.673 140.609,192.336 137.499 C 193.070 136.124,194.488 133.470,195.485 131.600 C 196.483 129.730,197.932 127.030,198.705 125.600 C 199.478 124.170,200.715 121.875,201.455 120.500 C 202.195 119.125,203.405 116.875,204.145 115.500 C 204.885 114.125,206.145 111.785,206.945 110.300 C 207.745 108.815,209.030 106.430,209.800 105.000 C 210.570 103.570,211.855 101.185,212.655 99.700 C 213.455 98.215,214.715 95.875,215.455 94.500 C 216.195 93.125,217.454 90.785,218.253 89.300 C 219.052 87.815,220.198 85.700,220.801 84.600 C 221.403 83.500,222.477 81.475,223.188 80.100 C 224.571 77.427,225.149 77.077,225.826 78.503 C 226.314 79.531,229.563 85.636,231.199 88.600 C 231.807 89.700,233.068 92.040,234.002 93.800 C 234.936 95.560,236.308 98.125,237.050 99.500 C 237.793 100.875,239.007 103.125,239.750 104.500 C 240.492 105.875,241.865 108.440,242.800 110.200 C 243.735 111.960,245.133 114.570,245.905 116.000 C 249.083 121.881,249.978 123.548,251.600 126.600 C 253.236 129.679,254.384 131.814,257.400 137.387 C 258.170 138.810,258.800 140.160,258.800 140.387 C 258.800 141.020,241.745 140.947,241.324 140.313 C 241.146 140.045,240.098 138.110,238.996 136.013 L 236.992 132.200 224.857 132.200 L 212.722 132.200 210.514 136.500 L 208.305 140.800 188.734 140.800 L 169.164 140.800 168.282 139.875 C 167.797 139.367,166.048 137.522,164.397 135.775 C 162.745 134.029,158.425 129.477,154.797 125.660 C 151.168 121.843,148.056 118.468,147.880 118.160 C 147.217 116.999,145.994 117.681,143.043 120.858 L 140.016 124.116 139.908 132.358 L 139.800 140.600 132.200 140.600 L 124.600 140.600 124.490 109.600 C 124.429 92.550,124.479 78.191,124.600 77.691 L 124.820 76.782 132.310 76.891 L 139.800 77.000 139.906 89.300 M276.702 108.900 L 276.805 140.800 269.202 140.800 L 261.600 140.800 261.600 109.067 C 261.600 91.613,261.724 77.209,261.875 77.058 C 262.027 76.906,265.402 76.831,269.375 76.891 L 276.600 77.000 276.702 108.900 M222.965 112.500 C 218.619 120.834,218.418 120.000,224.776 120.000 C 231.041 120.000,230.828 120.304,228.155 115.186 C 226.953 112.884,225.865 110.685,225.738 110.300 C 225.296 108.961,224.467 109.618,222.965 112.500 M210.659 163.417 C 214.128 165.105,214.275 165.806,211.908 169.400 C 210.327 171.802,206.400 178.344,206.400 178.576 C 206.400 178.831,202.772 184.677,200.684 187.786 C 198.433 191.137,198.650 191.502,202.244 190.407 C 203.760 189.945,206.260 189.182,207.800 188.711 C 209.340 188.241,210.771 187.708,210.980 187.528 C 211.189 187.348,211.686 187.200,212.085 187.200 C 212.484 187.200,213.123 187.026,213.505 186.813 C 214.869 186.052,218.947 184.824,223.496 183.803 C 227.155 182.983,230.769 183.999,230.794 185.856 C 230.817 187.581,227.653 188.946,217.400 191.636 C 214.241 192.465,213.863 192.606,213.731 193.005 C 213.657 193.227,214.306 193.848,215.173 194.383 C 217.514 195.830,217.839 196.691,216.854 198.835 C 216.108 200.458,215.017 203.799,213.928 207.800 C 212.939 211.434,211.644 215.143,210.753 216.895 C 210.067 218.243,210.422 219.086,212.520 221.089 C 218.311 226.615,226.124 230.409,241.600 235.209 C 248.452 237.335,247.181 238.138,235.000 239.379 C 221.476 240.757,221.281 240.666,211.200 228.238 C 207.230 223.345,207.468 223.421,204.278 226.012 C 198.899 230.379,191.047 233.222,182.800 233.787 C 177.440 234.154,176.983 233.132,181.800 231.546 C 184.050 230.805,191.335 227.922,193.856 226.774 C 196.906 225.385,203.200 220.073,203.200 218.887 C 203.200 218.248,201.592 215.828,198.229 211.405 C 194.095 205.967,191.501 203.216,188.730 201.333 C 184.753 198.629,188.001 196.935,192.685 199.270 C 194.807 200.328,197.258 202.930,201.757 208.900 C 205.678 214.104,206.107 214.364,206.716 211.900 C 208.865 203.208,208.890 193.702,206.764 193.881 C 206.234 193.926,203.730 194.073,201.200 194.209 C 198.191 194.370,195.793 194.733,194.267 195.261 C 191.028 196.380,191.044 195.700,194.380 190.200 C 200.286 180.465,204.009 169.131,202.769 164.664 C 202.061 162.115,202.376 161.846,205.709 162.151 C 207.526 162.317,209.365 162.787,210.659 163.417 M186.811 173.602 C 191.632 175.359,191.985 176.285,189.037 179.443 C 186.388 182.282,183.882 186.531,182.568 190.415 C 181.340 194.046,181.335 193.986,183.000 195.600 C 185.565 198.086,184.874 198.652,177.200 200.347 C 176.210 200.566,173.555 201.151,171.300 201.647 C 168.134 202.344,167.200 202.699,167.200 203.205 C 167.200 203.566,167.031 205.737,166.823 208.031 C 166.216 214.755,165.983 222.156,166.360 222.750 C 166.723 223.322,167.018 223.147,172.547 219.095 C 176.653 216.086,181.579 212.800,181.985 212.800 C 183.381 212.800,181.902 215.260,178.021 219.389 C 176.580 220.923,174.131 223.533,172.580 225.189 C 171.030 226.845,168.708 229.321,167.420 230.691 C 166.133 232.061,164.371 234.131,163.506 235.291 C 159.155 241.121,158.358 241.018,155.650 234.281 C 154.857 232.309,155.120 231.316,156.998 229.202 C 157.987 228.088,159.050 226.777,159.360 226.289 C 160.727 224.133,161.276 207.987,160.164 202.612 C 159.271 198.290,159.543 197.442,161.718 197.784 C 169.631 199.027,175.615 197.691,176.875 194.400 C 177.889 191.750,179.236 182.093,178.729 181.100 C 178.219 180.101,177.660 180.200,173.296 182.065 C 165.595 185.355,162.404 185.547,158.900 182.930 C 156.388 181.054,157.440 179.818,161.924 179.378 C 166.244 178.954,173.762 176.667,176.770 174.862 C 181.007 172.320,180.938 172.347,182.811 172.579 C 183.807 172.703,185.607 173.163,186.811 173.602 " stroke="none" fill="#d36c1c" fill-rule="evenodd"></path><path id="path1" d="M32.400 30.524 C 32.400 30.811,33.030 32.093,33.800 33.372 C 34.570 34.651,35.200 35.757,35.200 35.831 C 35.200 35.905,35.766 36.918,36.459 38.082 C 37.151 39.247,38.258 41.190,38.920 42.400 C 39.581 43.610,40.455 45.078,40.861 45.662 C 41.267 46.246,41.600 46.834,41.600 46.969 C 41.600 47.104,42.320 48.400,43.200 49.848 C 44.080 51.297,44.800 52.615,44.800 52.779 C 44.800 54.492,35.989 54.400,200.070 54.400 C 366.751 54.400,355.200 54.532,355.200 52.630 C 355.200 52.462,355.533 51.846,355.939 51.262 C 356.345 50.678,357.219 49.210,357.880 48.000 C 358.542 46.790,359.649 44.847,360.341 43.682 C 361.034 42.518,361.600 41.501,361.600 41.423 C 361.600 41.345,362.320 40.097,363.200 38.648 C 364.080 37.200,364.800 35.943,364.800 35.856 C 364.800 35.768,365.430 34.651,366.200 33.372 C 366.970 32.093,367.600 30.811,367.600 30.524 C 367.600 30.093,337.831 30.000,200.000 30.000 C 62.169 30.000,32.400 30.093,32.400 30.524 M20.000 100.351 C 20.000 100.543,46.460 147.006,78.800 203.600 C 111.140 260.194,137.600 306.548,137.600 306.609 C 137.600 306.669,138.320 307.903,139.200 309.352 C 140.080 310.800,140.800 312.096,140.800 312.231 C 140.800 312.366,141.133 312.954,141.539 313.538 C 141.945 314.122,142.822 315.590,143.486 316.800 C 146.222 321.781,147.395 323.602,147.787 323.472 C 148.292 323.305,160.345 302.419,160.377 301.655 C 160.400 301.106,158.787 297.986,156.462 294.082 C 155.768 292.918,155.200 291.866,155.200 291.744 C 155.200 291.623,154.867 291.046,154.461 290.462 C 154.055 289.878,153.181 288.410,152.520 287.200 C 151.858 285.990,150.751 284.047,150.059 282.882 C 149.366 281.718,148.800 280.666,148.800 280.544 C 148.800 280.423,148.467 279.846,148.061 279.262 C 147.655 278.678,146.781 277.210,146.120 276.000 C 145.458 274.790,144.351 272.847,143.659 271.682 C 142.966 270.518,142.400 269.466,142.400 269.344 C 142.400 269.223,142.067 268.646,141.661 268.062 C 141.255 267.478,140.381 266.010,139.720 264.800 C 139.058 263.590,137.951 261.647,137.259 260.482 C 136.566 259.318,136.000 258.266,136.000 258.144 C 136.000 258.023,135.667 257.446,135.261 256.862 C 134.855 256.278,133.981 254.810,133.320 253.600 C 132.658 252.390,131.551 250.447,130.859 249.282 C 130.166 248.118,129.600 247.101,129.600 247.023 C 129.600 246.945,128.880 245.697,128.000 244.248 C 127.120 242.800,126.400 241.504,126.400 241.369 C 126.400 241.234,126.067 240.646,125.661 240.062 C 125.255 239.478,124.381 238.010,123.720 236.800 C 123.058 235.590,121.951 233.647,121.259 232.482 C 120.566 231.318,120.000 230.266,120.000 230.144 C 120.000 230.023,119.667 229.446,119.261 228.862 C 118.855 228.278,117.981 226.810,117.320 225.600 C 116.658 224.390,115.551 222.447,114.859 221.282 C 114.166 220.118,113.600 219.066,113.600 218.944 C 113.600 218.823,113.267 218.246,112.861 217.662 C 112.455 217.078,111.581 215.610,110.920 214.400 C 110.258 213.190,109.151 211.247,108.459 210.082 C 107.766 208.918,107.200 207.866,107.200 207.744 C 107.200 207.623,106.867 207.046,106.461 206.462 C 106.055 205.878,105.181 204.410,104.520 203.200 C 103.858 201.990,102.751 200.047,102.059 198.882 C 101.366 197.718,100.800 196.666,100.800 196.544 C 100.800 196.423,100.467 195.846,100.061 195.262 C 99.655 194.678,98.781 193.210,98.120 192.000 C 97.458 190.790,96.351 188.847,95.659 187.682 C 94.966 186.518,94.400 185.466,94.400 185.344 C 94.400 185.223,94.067 184.646,93.661 184.062 C 93.255 183.478,92.381 182.010,91.720 180.800 C 91.058 179.590,89.951 177.647,89.259 176.482 C 88.566 175.318,88.000 174.266,88.000 174.144 C 88.000 174.023,87.667 173.446,87.261 172.862 C 86.855 172.278,85.981 170.810,85.320 169.600 C 84.658 168.390,83.551 166.447,82.859 165.282 C 82.166 164.118,81.600 163.066,81.600 162.944 C 81.600 162.823,81.267 162.246,80.861 161.662 C 80.455 161.078,79.581 159.610,78.920 158.400 C 78.258 157.190,77.151 155.247,76.459 154.082 C 75.766 152.918,75.200 151.866,75.200 151.744 C 75.200 151.623,74.867 151.046,74.461 150.462 C 74.055 149.878,73.181 148.410,72.520 147.200 C 71.858 145.990,70.751 144.047,70.059 142.882 C 69.366 141.718,68.800 140.666,68.800 140.544 C 68.800 140.423,68.467 139.846,68.061 139.262 C 67.655 138.678,66.781 137.210,66.120 136.000 C 65.458 134.790,64.351 132.847,63.659 131.682 C 62.966 130.518,62.400 129.466,62.400 129.344 C 62.400 129.223,62.067 128.646,61.661 128.062 C 61.255 127.478,60.381 126.010,59.720 124.800 C 59.058 123.590,57.951 121.647,57.259 120.482 C 56.566 119.318,56.000 118.266,56.000 118.144 C 56.000 118.023,55.667 117.446,55.261 116.862 C 54.855 116.278,53.978 114.810,53.312 113.600 C 52.646 112.390,50.625 108.835,48.819 105.700 L 45.536 100.000 32.768 100.000 C 25.723 100.000,20.000 100.157,20.000 100.351 M354.080 100.480 C 353.816 100.744,353.600 101.096,353.600 101.262 C 353.600 101.429,353.034 102.518,352.341 103.682 C 351.649 104.847,350.542 106.790,349.880 108.000 C 349.219 109.210,348.345 110.678,347.939 111.262 C 347.533 111.846,347.200 112.423,347.200 112.544 C 347.200 112.666,346.634 113.718,345.941 114.882 C 345.249 116.047,344.142 117.990,343.480 119.200 C 342.819 120.410,341.945 121.878,341.539 122.462 C 341.133 123.046,340.800 123.623,340.800 123.744 C 340.800 123.866,340.234 124.918,339.541 126.082 C 338.849 127.247,337.742 129.190,337.080 130.400 C 336.419 131.610,335.545 133.078,335.139 133.662 C 334.733 134.246,334.400 134.823,334.400 134.944 C 334.400 135.066,333.834 136.118,333.141 137.282 C 332.449 138.447,331.342 140.390,330.680 141.600 C 330.019 142.810,329.145 144.278,328.739 144.862 C 328.333 145.446,328.000 146.023,328.000 146.144 C 328.000 146.266,327.434 147.318,326.741 148.482 C 326.049 149.647,324.942 151.590,324.280 152.800 C 323.619 154.010,322.745 155.478,322.339 156.062 C 321.933 156.646,321.600 157.223,321.600 157.344 C 321.600 157.466,321.034 158.518,320.341 159.682 C 319.649 160.847,318.542 162.790,317.880 164.000 C 317.219 165.210,316.345 166.678,315.939 167.262 C 315.533 167.846,315.200 168.423,315.200 168.544 C 315.200 168.666,314.634 169.718,313.941 170.882 C 313.249 172.047,312.142 173.990,311.480 175.200 C 310.819 176.410,309.945 177.878,309.539 178.462 C 309.133 179.046,308.800 179.623,308.800 179.744 C 308.800 179.866,308.234 180.918,307.541 182.082 C 306.849 183.247,305.742 185.190,305.080 186.400 C 304.419 187.610,303.545 189.078,303.139 189.662 C 302.733 190.246,302.400 190.823,302.400 190.944 C 302.400 191.066,301.834 192.118,301.141 193.282 C 300.449 194.447,299.342 196.390,298.680 197.600 C 298.019 198.810,297.145 200.278,296.739 200.862 C 296.333 201.446,296.000 202.023,296.000 202.144 C 296.000 202.266,295.434 203.318,294.741 204.482 C 294.049 205.647,292.942 207.590,292.280 208.800 C 291.619 210.010,290.745 211.478,290.339 212.062 C 289.933 212.646,289.600 213.223,289.600 213.344 C 289.600 213.466,289.034 214.518,288.341 215.682 C 287.649 216.847,286.542 218.790,285.880 220.000 C 285.219 221.210,284.345 222.678,283.939 223.262 C 283.533 223.846,283.200 224.423,283.200 224.544 C 283.200 224.666,282.634 225.718,281.941 226.882 C 281.249 228.047,280.142 229.990,279.480 231.200 C 278.819 232.410,277.945 233.878,277.539 234.462 C 277.133 235.046,276.800 235.634,276.800 235.769 C 276.800 235.904,276.080 237.200,275.200 238.648 C 274.320 240.097,273.600 241.345,273.600 241.423 C 273.600 241.501,273.034 242.518,272.341 243.682 C 271.649 244.847,270.542 246.790,269.880 248.000 C 269.219 249.210,268.345 250.678,267.939 251.262 C 267.533 251.846,267.200 252.423,267.200 252.544 C 267.200 252.666,266.634 253.718,265.941 254.882 C 265.249 256.047,264.142 257.990,263.480 259.200 C 262.819 260.410,261.945 261.878,261.539 262.462 C 261.133 263.046,260.800 263.623,260.800 263.744 C 260.800 263.866,260.234 264.918,259.541 266.082 C 258.849 267.247,257.742 269.190,257.080 270.400 C 256.419 271.610,255.545 273.078,255.139 273.662 C 254.733 274.246,254.400 274.823,254.400 274.944 C 254.400 275.066,253.834 276.118,253.141 277.282 C 252.449 278.447,251.342 280.390,250.680 281.600 C 250.019 282.810,249.145 284.278,248.739 284.862 C 248.333 285.446,248.000 286.023,248.000 286.144 C 248.000 286.266,247.434 287.318,246.741 288.482 C 246.049 289.647,244.942 291.590,244.280 292.800 C 243.619 294.010,242.745 295.478,242.339 296.062 C 241.933 296.646,241.600 297.223,241.600 297.344 C 241.600 297.466,241.035 298.518,240.344 299.682 C 239.653 300.847,238.770 302.360,238.382 303.045 C 237.993 303.730,237.450 304.651,237.175 305.091 C 236.636 305.954,246.138 323.400,247.148 323.400 C 247.576 323.400,374.274 102.183,374.695 100.700 C 374.946 99.814,354.960 99.600,354.080 100.480 " stroke="none" fill="#3d3c44" fill-rule="evenodd"></path><path id="path2" d="M0.000 200.000 L 0.000 400.000 200.000 400.000 L 400.000 400.000 400.000 200.000 L 400.000 0.000 200.000 0.000 L 0.000 0.000 0.000 200.000 M367.745 30.311 C 367.850 30.481,365.076 35.622,361.580 41.734 C 358.085 47.846,355.174 53.152,355.112 53.524 C 355.009 54.145,356.018 54.209,367.500 54.306 C 377.100 54.387,380.000 54.526,380.000 54.906 C 380.000 55.178,379.100 56.913,378.000 58.761 C 376.900 60.610,376.000 62.177,376.000 62.244 C 376.000 62.310,375.434 63.318,374.741 64.482 C 374.049 65.647,372.942 67.590,372.280 68.800 C 371.619 70.010,370.745 71.478,370.339 72.062 C 369.933 72.646,369.600 73.223,369.600 73.344 C 369.600 73.466,369.034 74.518,368.341 75.682 C 367.649 76.847,366.542 78.790,365.880 80.000 C 365.219 81.210,364.345 82.678,363.939 83.262 C 363.533 83.846,363.200 84.434,363.200 84.569 C 363.200 84.704,362.480 86.000,361.600 87.448 C 360.720 88.897,360.000 90.145,360.000 90.223 C 360.000 90.301,359.434 91.318,358.741 92.482 C 353.885 100.652,353.309 100.000,365.387 100.000 C 370.784 100.000,375.200 100.069,375.200 100.153 C 375.200 100.238,370.700 108.179,365.200 117.800 C 359.700 127.421,355.200 135.379,355.200 135.485 C 355.200 135.590,354.867 136.154,354.461 136.738 C 354.055 137.322,353.181 138.790,352.520 140.000 C 351.858 141.210,350.751 143.153,350.059 144.318 C 349.366 145.482,348.800 146.534,348.800 146.656 C 348.800 146.777,348.467 147.354,348.061 147.938 C 347.655 148.522,346.781 149.990,346.120 151.200 C 345.458 152.410,344.351 154.353,343.659 155.518 C 342.966 156.682,342.400 157.734,342.400 157.856 C 342.400 157.977,342.067 158.554,341.661 159.138 C 341.255 159.722,340.381 161.190,339.720 162.400 C 339.058 163.610,337.951 165.553,337.259 166.718 C 336.566 167.882,336.000 168.899,336.000 168.977 C 336.000 169.055,335.280 170.303,334.400 171.752 C 333.520 173.200,332.800 174.496,332.800 174.631 C 332.800 174.766,332.467 175.354,332.061 175.938 C 331.655 176.522,330.781 177.990,330.120 179.200 C 329.458 180.410,328.351 182.353,327.659 183.518 C 326.966 184.682,326.400 185.734,326.400 185.856 C 326.400 185.977,326.067 186.554,325.661 187.138 C 325.255 187.722,324.381 189.190,323.720 190.400 C 323.058 191.610,321.951 193.553,321.259 194.718 C 320.566 195.882,320.000 196.934,320.000 197.056 C 320.000 197.177,319.667 197.754,319.261 198.338 C 318.855 198.922,317.981 200.390,317.320 201.600 C 316.658 202.810,315.551 204.753,314.859 205.918 C 314.166 207.082,313.600 208.134,313.600 208.256 C 313.600 208.377,313.267 208.954,312.861 209.538 C 312.455 210.122,311.581 211.590,310.920 212.800 C 310.258 214.010,309.151 215.953,308.459 217.118 C 307.766 218.282,307.200 219.334,307.200 219.456 C 307.200 219.577,306.867 220.154,306.461 220.738 C 306.055 221.322,305.181 222.790,304.520 224.000 C 303.858 225.210,302.751 227.153,302.059 228.318 C 301.366 229.482,300.800 230.534,300.800 230.656 C 300.800 230.777,300.467 231.354,300.061 231.938 C 299.655 232.522,298.781 233.990,298.120 235.200 C 297.458 236.410,296.351 238.353,295.659 239.518 C 294.966 240.682,294.400 241.734,294.400 241.856 C 294.400 241.977,294.067 242.554,293.661 243.138 C 293.255 243.722,292.381 245.190,291.720 246.400 C 291.058 247.610,289.951 249.553,289.259 250.718 C 288.566 251.882,288.000 252.934,288.000 253.056 C 288.000 253.177,287.667 253.754,287.261 254.338 C 286.855 254.922,285.981 256.390,285.320 257.600 C 284.658 258.810,283.551 260.753,282.859 261.918 C 282.166 263.082,281.600 264.134,281.600 264.256 C 281.600 264.377,281.267 264.954,280.861 265.538 C 280.455 266.122,279.581 267.590,278.920 268.800 C 278.258 270.010,277.151 271.953,276.459 273.118 C 275.766 274.282,275.200 275.334,275.200 275.456 C 275.200 275.577,274.867 276.154,274.461 276.738 C 274.055 277.322,273.181 278.790,272.520 280.000 C 271.858 281.210,270.751 283.153,270.059 284.318 C 269.366 285.482,268.800 286.534,268.800 286.656 C 268.800 286.777,268.467 287.354,268.061 287.938 C 267.655 288.522,266.781 289.990,266.120 291.200 C 265.458 292.410,264.351 294.353,263.659 295.518 C 262.966 296.682,262.400 297.734,262.400 297.856 C 262.400 297.977,262.067 298.554,261.661 299.138 C 261.255 299.722,260.381 301.190,259.720 302.400 C 259.058 303.610,257.951 305.553,257.259 306.718 C 256.566 307.882,256.000 308.934,256.000 309.056 C 256.000 309.177,255.667 309.754,255.261 310.338 C 254.855 310.922,253.981 312.390,253.320 313.600 C 252.658 314.810,251.551 316.753,250.859 317.918 C 250.166 319.082,249.600 320.130,249.600 320.246 C 249.600 320.865,247.063 324.020,246.794 323.736 C 246.619 323.551,246.098 322.725,245.638 321.900 C 245.177 321.075,244.440 319.770,244.000 319.000 C 243.560 318.230,242.840 316.970,242.400 316.200 C 241.960 315.430,241.240 314.170,240.800 313.400 C 240.360 312.630,239.611 311.325,239.135 310.500 C 238.659 309.675,238.016 308.505,237.705 307.900 C 236.941 306.409,236.302 306.517,235.336 308.300 C 234.889 309.125,234.135 310.475,233.662 311.300 C 233.188 312.125,232.440 313.430,232.000 314.200 C 231.560 314.970,230.840 316.230,230.400 317.000 C 229.960 317.770,229.240 319.030,228.800 319.800 C 228.360 320.570,227.640 321.830,227.200 322.600 C 226.760 323.370,226.040 324.630,225.600 325.400 C 225.160 326.170,224.440 327.430,224.000 328.200 C 223.560 328.970,222.840 330.230,222.400 331.000 C 221.960 331.770,221.240 333.030,220.800 333.800 C 220.360 334.570,219.640 335.830,219.200 336.600 C 218.760 337.370,218.040 338.630,217.600 339.400 C 217.160 340.170,216.440 341.430,216.000 342.200 C 215.560 342.970,214.840 344.230,214.400 345.000 C 213.960 345.770,213.240 347.030,212.800 347.800 C 212.360 348.570,211.640 349.830,211.200 350.600 C 210.760 351.370,210.040 352.630,209.600 353.400 C 209.160 354.170,208.440 355.430,208.000 356.200 C 207.560 356.970,206.840 358.230,206.400 359.000 C 205.960 359.770,205.240 361.030,204.800 361.800 C 204.360 362.570,203.665 363.785,203.257 364.500 C 202.848 365.215,202.055 366.610,201.496 367.600 C 200.936 368.590,200.263 369.400,200.000 369.400 C 199.737 369.400,199.064 368.590,198.504 367.600 C 197.945 366.610,197.152 365.215,196.743 364.500 C 196.335 363.785,195.640 362.570,195.200 361.800 C 194.760 361.030,194.040 359.770,193.600 359.000 C 193.160 358.230,192.440 356.970,192.000 356.200 C 191.560 355.430,190.840 354.170,190.400 353.400 C 189.960 352.630,189.240 351.370,188.800 350.600 C 188.360 349.830,187.640 348.570,187.200 347.800 C 186.760 347.030,186.040 345.770,185.600 345.000 C 185.160 344.230,184.440 342.970,184.000 342.200 C 183.560 341.430,182.840 340.170,182.400 339.400 C 181.960 338.630,181.240 337.370,180.800 336.600 C 180.360 335.830,179.640 334.570,179.200 333.800 C 178.760 333.030,178.040 331.770,177.600 331.000 C 177.160 330.230,176.440 328.970,176.000 328.200 C 175.560 327.430,174.840 326.170,174.400 325.400 C 173.960 324.630,173.240 323.370,172.800 322.600 C 172.360 321.830,171.640 320.570,171.200 319.800 C 170.760 319.030,170.040 317.770,169.600 317.000 C 169.160 316.230,168.440 314.970,168.000 314.200 C 167.560 313.430,166.840 312.170,166.400 311.400 C 165.960 310.630,165.265 309.415,164.857 308.700 C 164.448 307.985,163.630 306.590,163.039 305.600 C 162.448 304.610,161.862 303.485,161.736 303.100 C 161.319 301.827,160.225 302.349,159.220 304.300 C 158.682 305.345,157.945 306.650,157.582 307.200 C 157.219 307.750,156.381 309.190,155.720 310.400 C 155.058 311.610,153.951 313.553,153.259 314.718 C 152.566 315.882,152.000 316.899,152.000 316.977 C 152.000 317.055,151.273 318.352,150.384 319.859 C 149.496 321.367,148.628 322.859,148.456 323.176 C 147.890 324.218,147.368 324.036,146.540 322.507 C 146.091 321.678,145.335 320.325,144.862 319.500 C 144.388 318.675,143.640 317.370,143.200 316.600 C 142.760 315.830,142.040 314.570,141.600 313.800 C 141.160 313.030,140.440 311.770,140.000 311.000 C 139.560 310.230,138.840 308.970,138.400 308.200 C 137.960 307.430,137.240 306.170,136.800 305.400 C 136.360 304.630,135.640 303.370,135.200 302.600 C 134.760 301.830,134.040 300.570,133.600 299.800 C 133.160 299.030,132.440 297.770,132.000 297.000 C 131.560 296.230,130.840 294.970,130.400 294.200 C 129.960 293.430,129.240 292.170,128.800 291.400 C 128.360 290.630,127.640 289.370,127.200 288.600 C 126.760 287.830,126.040 286.570,125.600 285.800 C 125.160 285.030,124.440 283.770,124.000 283.000 C 123.560 282.230,122.840 280.970,122.400 280.200 C 121.960 279.430,121.240 278.170,120.800 277.400 C 120.360 276.630,119.640 275.370,119.200 274.600 C 118.760 273.830,118.040 272.570,117.600 271.800 C 117.160 271.030,116.440 269.770,116.000 269.000 C 115.560 268.230,114.840 266.970,114.400 266.200 C 113.960 265.430,113.240 264.170,112.800 263.400 C 112.360 262.630,111.640 261.370,111.200 260.600 C 110.760 259.830,110.040 258.570,109.600 257.800 C 109.160 257.030,108.440 255.770,108.000 255.000 C 107.560 254.230,106.840 252.970,106.400 252.200 C 105.960 251.430,105.240 250.170,104.800 249.400 C 104.360 248.630,103.640 247.370,103.200 246.600 C 102.760 245.830,102.040 244.570,101.600 243.800 C 101.160 243.030,100.440 241.770,100.000 241.000 C 99.560 240.230,98.840 238.970,98.400 238.200 C 97.960 237.430,97.240 236.170,96.800 235.400 C 96.360 234.630,95.640 233.370,95.200 232.600 C 94.760 231.830,94.040 230.570,93.600 229.800 C 93.160 229.030,92.440 227.770,92.000 227.000 C 91.560 226.230,90.840 224.970,90.400 224.200 C 89.960 223.430,89.240 222.170,88.800 221.400 C 88.360 220.630,87.640 219.370,87.200 218.600 C 86.760 217.830,86.013 216.525,85.541 215.700 C 85.069 214.875,84.141 213.210,83.480 212.000 C 82.819 210.790,81.945 209.322,81.539 208.738 C 81.133 208.154,80.800 207.577,80.800 207.456 C 80.800 207.334,80.234 206.282,79.541 205.118 C 78.849 203.953,77.742 202.010,77.080 200.800 C 76.419 199.590,75.545 198.122,75.139 197.538 C 74.733 196.954,74.400 196.377,74.400 196.256 C 74.400 196.134,73.834 195.082,73.141 193.918 C 72.449 192.753,71.342 190.810,70.680 189.600 C 70.019 188.390,69.145 186.922,68.739 186.338 C 68.333 185.754,68.000 185.177,68.000 185.056 C 68.000 184.934,67.434 183.882,66.741 182.718 C 66.049 181.553,64.942 179.610,64.280 178.400 C 63.619 177.190,62.745 175.722,62.339 175.138 C 61.933 174.554,61.600 173.977,61.600 173.856 C 61.600 173.734,61.034 172.682,60.341 171.518 C 59.649 170.353,58.542 168.410,57.880 167.200 C 57.219 165.990,56.345 164.522,55.939 163.938 C 55.533 163.354,55.200 162.777,55.200 162.656 C 55.200 162.534,54.634 161.482,53.941 160.318 C 53.249 159.153,52.142 157.210,51.480 156.000 C 50.819 154.790,49.945 153.322,49.539 152.738 C 49.133 152.154,48.800 151.577,48.800 151.456 C 48.800 151.334,48.234 150.282,47.541 149.118 C 46.849 147.953,45.742 146.010,45.080 144.800 C 44.419 143.590,43.545 142.122,43.139 141.538 C 42.733 140.954,42.400 140.377,42.400 140.256 C 42.400 140.134,41.834 139.082,41.141 137.918 C 40.449 136.753,39.342 134.810,38.680 133.600 C 38.019 132.390,37.145 130.922,36.739 130.338 C 36.333 129.754,36.000 129.177,36.000 129.056 C 36.000 128.934,35.434 127.882,34.741 126.718 C 34.049 125.553,32.942 123.610,32.280 122.400 C 31.619 121.190,30.745 119.722,30.339 119.138 C 29.933 118.554,29.600 117.977,29.600 117.856 C 29.600 117.734,29.034 116.682,28.341 115.518 C 27.649 114.353,26.542 112.410,25.880 111.200 C 25.219 109.990,24.345 108.522,23.939 107.938 C 23.533 107.354,23.200 106.766,23.200 106.631 C 23.200 106.496,22.480 105.200,21.600 103.752 C 19.134 99.693,18.267 100.000,32.213 100.000 C 42.566 100.000,44.459 99.911,44.650 99.414 C 44.779 99.077,39.605 89.607,32.437 77.065 C 25.597 65.095,20.000 55.101,20.000 54.857 C 20.000 54.541,23.651 54.381,32.500 54.306 C 43.982 54.209,44.991 54.145,44.888 53.524 C 44.826 53.152,41.915 47.846,38.420 41.734 C 34.924 35.622,32.150 30.481,32.255 30.311 C 32.506 29.904,367.494 29.904,367.745 30.311 M124.600 77.691 C 124.479 78.191,124.429 92.550,124.490 109.600 L 124.600 140.600 132.200 140.600 L 139.800 140.600 139.908 132.358 L 140.016 124.116 143.043 120.858 C 145.994 117.681,147.217 116.999,147.880 118.160 C 148.056 118.468,151.168 121.843,154.797 125.660 C 158.425 129.477,162.745 134.029,164.397 135.775 C 166.048 137.522,167.797 139.367,168.282 139.875 L 169.164 140.800 188.734 140.800 L 208.305 140.800 210.514 136.500 L 212.722 132.200 224.857 132.200 L 236.992 132.200 238.996 136.013 C 240.098 138.110,241.146 140.045,241.324 140.313 C 241.745 140.947,258.800 141.020,258.800 140.387 C 258.800 140.160,258.170 138.810,257.400 137.387 C 254.384 131.814,253.236 129.679,251.600 126.600 C 249.978 123.548,249.083 121.881,245.905 116.000 C 245.133 114.570,243.735 111.960,242.800 110.200 C 241.865 108.440,240.492 105.875,239.750 104.500 C 239.007 103.125,237.793 100.875,237.050 99.500 C 236.308 98.125,234.936 95.560,234.002 93.800 C 233.068 92.040,231.807 89.700,231.199 88.600 C 229.563 85.636,226.314 79.531,225.826 78.503 C 225.149 77.077,224.571 77.427,223.188 80.100 C 222.477 81.475,221.403 83.500,220.801 84.600 C 220.198 85.700,219.052 87.815,218.253 89.300 C 217.454 90.785,216.195 93.125,215.455 94.500 C 214.715 95.875,213.455 98.215,212.655 99.700 C 211.855 101.185,210.570 103.570,209.800 105.000 C 209.030 106.430,207.745 108.815,206.945 110.300 C 206.145 111.785,204.885 114.125,204.145 115.500 C 203.405 116.875,202.195 119.125,201.455 120.500 C 200.715 121.875,199.478 124.170,198.705 125.600 C 197.932 127.030,196.483 129.730,195.485 131.600 C 190.124 141.649,191.086 140.997,187.368 137.096 C 180.433 129.819,167.026 115.794,163.208 111.824 C 160.894 109.417,158.775 107.199,158.501 106.896 C 157.695 106.006,158.048 105.616,172.586 91.340 C 180.184 83.879,186.400 77.556,186.400 77.288 C 186.400 76.917,183.891 76.800,175.898 76.800 L 165.395 76.800 153.000 89.200 C 146.183 96.020,140.471 101.600,140.308 101.600 C 140.145 101.600,139.964 96.065,139.906 89.300 L 139.800 77.000 132.310 76.891 L 124.820 76.782 124.600 77.691 M261.875 77.058 C 261.724 77.209,261.600 91.613,261.600 109.067 L 261.600 140.800 269.202 140.800 L 276.805 140.800 276.702 108.900 L 276.600 77.000 269.375 76.891 C 265.402 76.831,262.027 76.906,261.875 77.058 M225.738 110.300 C 225.865 110.685,226.953 112.884,228.155 115.186 C 230.828 120.304,231.041 120.000,224.776 120.000 C 218.978 120.000,219.061 120.055,220.528 117.200 C 224.613 109.247,225.154 108.531,225.738 110.300 M202.580 162.507 C 202.449 162.848,202.534 163.819,202.769 164.664 C 204.009 169.131,200.286 180.465,194.380 190.200 C 191.044 195.700,191.028 196.380,194.267 195.261 C 195.793 194.733,198.191 194.370,201.200 194.209 C 203.730 194.073,206.234 193.926,206.764 193.881 C 208.890 193.702,208.865 203.208,206.716 211.900 C 206.107 214.364,205.678 214.104,201.757 208.900 C 197.258 202.930,194.807 200.328,192.685 199.270 C 188.001 196.935,184.753 198.629,188.730 201.333 C 191.501 203.216,194.095 205.967,198.229 211.405 C 201.592 215.828,203.200 218.248,203.200 218.887 C 203.200 220.073,196.906 225.385,193.856 226.774 C 191.335 227.922,184.050 230.805,181.800 231.546 C 176.983 233.132,177.440 234.154,182.800 233.787 C 191.047 233.222,198.899 230.379,204.278 226.012 C 207.468 223.421,207.230 223.345,211.200 228.238 C 221.281 240.666,221.476 240.757,235.000 239.379 C 247.181 238.138,248.452 237.335,241.600 235.209 C 226.124 230.409,218.311 226.615,212.520 221.089 C 210.422 219.086,210.067 218.243,210.753 216.895 C 211.644 215.143,212.939 211.434,213.928 207.800 C 215.017 203.799,216.108 200.458,216.854 198.835 C 217.839 196.691,217.514 195.830,215.173 194.383 C 214.306 193.848,213.657 193.227,213.731 193.005 C 213.863 192.606,214.241 192.465,217.400 191.636 C 227.653 188.946,230.817 187.581,230.794 185.856 C 230.769 183.999,227.155 182.983,223.496 183.803 C 218.947 184.824,214.869 186.052,213.505 186.813 C 213.123 187.026,212.484 187.200,212.085 187.200 C 211.686 187.200,211.189 187.348,210.980 187.528 C 210.771 187.708,209.340 188.241,207.800 188.711 C 206.260 189.182,203.760 189.945,202.244 190.407 C 198.650 191.502,198.433 191.137,200.684 187.786 C 202.772 184.677,206.400 178.831,206.400 178.576 C 206.400 178.344,210.327 171.802,211.908 169.400 C 214.275 165.806,214.128 165.105,210.659 163.417 C 208.017 162.131,202.944 161.560,202.580 162.507 M179.770 173.077 C 179.094 173.475,177.744 174.278,176.770 174.862 C 173.762 176.667,166.244 178.954,161.924 179.378 C 157.440 179.818,156.388 181.054,158.900 182.930 C 162.404 185.547,165.595 185.355,173.296 182.065 C 177.660 180.200,178.219 180.101,178.729 181.100 C 179.236 182.093,177.889 191.750,176.875 194.400 C 175.615 197.691,169.631 199.027,161.718 197.784 C 159.543 197.442,159.271 198.290,160.164 202.612 C 161.276 207.987,160.727 224.133,159.360 226.289 C 159.050 226.777,157.987 228.088,156.998 229.202 C 155.120 231.316,154.857 232.309,155.650 234.281 C 158.358 241.018,159.155 241.121,163.506 235.291 C 164.371 234.131,166.133 232.061,167.420 230.691 C 168.708 229.321,171.030 226.845,172.580 225.189 C 174.131 223.533,176.580 220.923,178.021 219.389 C 181.902 215.260,183.381 212.800,181.985 212.800 C 181.579 212.800,176.653 216.086,172.547 219.095 C 167.018 223.147,166.723 223.322,166.360 222.750 C 165.983 222.156,166.216 214.755,166.823 208.031 C 167.031 205.737,167.200 203.566,167.200 203.205 C 167.200 202.699,168.134 202.344,171.300 201.647 C 173.555 201.151,176.210 200.566,177.200 200.347 C 184.874 198.652,185.565 198.086,183.000 195.600 C 181.335 193.986,181.340 194.046,182.568 190.415 C 183.882 186.531,186.388 182.282,189.037 179.443 C 190.247 178.147,191.184 176.816,191.118 176.486 C 190.655 174.135,182.261 171.613,179.770 173.077 " stroke="none" fill="#fbfbfb" fill-rule="evenodd"></path></g></svg>